<svg width="597" height="345" viewBox="0 0 597 345" fill="none" xmlns="http://www.w3.org/2000/svg">
<g clip-path="url(#clip0_7_205)">
<path d="M323.23 43.35C323.23 35.9 317.19 29.87 309.75 29.87C317.2 29.87 323.23 23.83 323.23 16.39C323.23 23.84 329.27 29.87 336.71 29.87C329.26 29.87 323.23 35.91 323.23 43.35Z" fill="white"/>
<path d="M54.74 104.42C54.74 99.3799 50.65 95.2899 45.61 95.2899C50.65 95.2899 54.74 91.1999 54.74 86.1599C54.74 91.1999 58.83 95.2899 63.87 95.2899C58.83 95.2899 54.74 99.3799 54.74 104.42Z" fill="#5798F0"/>
<path d="M193.85 29.0199C193.85 24.9799 190.58 21.7099 186.54 21.7099C190.58 21.7099 193.85 18.4399 193.85 14.3999C193.85 18.4399 197.12 21.7099 201.16 21.7099C197.12 21.7099 193.85 24.9799 193.85 29.0199Z" stroke="white" stroke-miterlimit="10"/>
<path d="M299.31 213.6C299.31 209.56 296.04 206.29 292 206.29C296.04 206.29 299.31 203.02 299.31 198.98C299.31 203.02 302.58 206.29 306.62 206.29C302.58 206.29 299.31 209.56 299.31 213.6Z" stroke="white" stroke-miterlimit="10"/>
<path d="M555.21 84.6099C555.21 78.9999 550.66 74.4499 545.05 74.4499C550.66 74.4499 555.21 69.8999 555.21 64.2899C555.21 69.8999 559.76 74.4499 565.37 74.4499C559.76 74.4499 555.21 78.9999 555.21 84.6099Z" stroke="#5392E6" stroke-miterlimit="10"/>
<path d="M75.4 25.44C79.29 23.43 84.12 25.07 86.19 29.09C88.26 33.11 86.79 37.99 82.91 40C79.02 42.01 74.19 40.37 72.12 36.35" stroke="white" stroke-miterlimit="10"/>
<path d="M287.61 149.83C292.15 147.49 297.72 149.27 300.06 153.81C302.4 158.35 300.62 163.92 296.08 166.26C291.54 168.6 285.97 166.82 283.63 162.28" stroke="#5392E6" stroke-miterlimit="10"/>
<path d="M14.05 100.94C10.49 103.83 5.25001 103.29 2.36001 99.7199C-0.529987 96.1599 0.0100136 90.9199 3.58001 88.0299" stroke="#CF6C1A" stroke-miterlimit="10"/>
<path d="M300.49 82.3699C303.892 82.3699 306.65 79.612 306.65 76.2099C306.65 72.8079 303.892 70.0499 300.49 70.0499C297.088 70.0499 294.33 72.8079 294.33 76.2099C294.33 79.612 297.088 82.3699 300.49 82.3699Z" fill="#B36DDB"/>
<path d="M589.18 149.37C589.18 152.77 586.42 155.53 583.02 155.53C579.62 155.53 576.86 152.77 576.86 149.37C576.86 145.97 579.62 143.21 583.02 143.21C586.42 143.21 589.18 145.97 589.18 149.37Z" fill="#5798F0"/>
<path d="M593.21 102.9C594.911 102.9 596.29 101.521 596.29 99.82C596.29 98.119 594.911 96.74 593.21 96.74C591.509 96.74 590.13 98.119 590.13 99.82C590.13 101.521 591.509 102.9 593.21 102.9Z" fill="#B36DDB"/>
<path d="M278.06 18.12C279.761 18.12 281.14 16.741 281.14 15.04C281.14 13.3389 279.761 11.96 278.06 11.96C276.359 11.96 274.98 13.3389 274.98 15.04C274.98 16.741 276.359 18.12 278.06 18.12Z" fill="#E5772E"/>
<path d="M438.57 81.06C441.972 81.06 444.73 78.3021 444.73 74.9C444.73 71.4979 441.972 68.74 438.57 68.74C435.168 68.74 432.41 71.4979 432.41 74.9C432.41 78.3021 435.168 81.06 438.57 81.06Z" stroke="#CF6C1A" stroke-miterlimit="10"/>
<path d="M41.37 167.01C44.7721 167.01 47.53 164.252 47.53 160.85C47.53 157.448 44.7721 154.69 41.37 154.69C37.9679 154.69 35.21 157.448 35.21 160.85C35.21 164.252 37.9679 167.01 41.37 167.01Z" stroke="#B678A8" stroke-miterlimit="10"/>
<path d="M398.26 21.31C402.67 17.73 409.14 18.41 412.72 22.81C416.3 27.22 415.62 33.69 411.22 37.27" stroke="#B678A8" stroke-miterlimit="10"/>
<mask id="mask0_7_205" style="mask-type:luminance" maskUnits="userSpaceOnUse" x="12" y="0" width="564" height="345">
<path d="M575.58 0.529907H12.81V344.99H575.58V0.529907Z" fill="white"/>
</mask>
<g mask="url(#mask0_7_205)">
<path d="M279.97 132.99C292.46 152.54 305.69 167.05 316.06 176.85C325.43 185.7 340.57 183.7 347.4 172.76L365.59 143.63L334.11 138.39L329.63 150.56L288.42 121.67C288.42 121.67 289.88 117.01 279.71 105.88C279.15 105.26 278.25 105.07 277.49 105.42C276.49 105.87 276.07 107.08 276.57 108.05L279.93 114.56L274.94 111.55C274.94 111.55 272.18 110.17 266.81 104.95C266.11 104.27 265.12 103.88 264.24 104.31C263.57 104.63 263.08 105.35 263.5 106.89C261.66 106.7 260.81 109.15 262.95 110.77C260.97 110.63 260.54 113.68 262.93 115.51C261.2 114.71 260.56 117.18 263.19 119.88C264.99 121.73 268.87 125.42 268.87 125.42C268.87 125.42 271.84 130.83 279.97 132.98V132.99Z" fill="#E9A891"/>
<path d="M330.48 151.16L338.07 156.48" stroke="#421C19" stroke-width="0.75" stroke-linecap="round" stroke-linejoin="round"/>
<path d="M264.4 107.31C264.4 107.31 268.27 111.62 272.98 114.63" stroke="#421C19" stroke-width="0.75" stroke-linecap="round" stroke-linejoin="round"/>
<path d="M263.79 111.49C263.79 111.49 267.32 115.43 271.75 118.41" stroke="#421C19" stroke-width="0.75" stroke-linecap="round" stroke-linejoin="round"/>
<path d="M263.65 116.18C263.65 116.18 266.72 119.6 270.72 122.48" stroke="#421C19" stroke-width="0.75" stroke-linecap="round" stroke-linejoin="round"/>
<path d="M270.38 124.34C270.38 124.34 271.19 118.88 273.53 113.37" stroke="#421C19" stroke-width="0.75" stroke-linecap="round" stroke-linejoin="round"/>
<path d="M275.22 114.5V115.3C275.3 119.55 277.69 123.43 281.46 125.4L283.45 126.44" stroke="#421C19" stroke-width="0.75" stroke-linecap="round" stroke-linejoin="round"/>
<path d="M359.51 140.3L334.99 135.32L333.13 140.39L350.52 152.84C353.29 154.82 357.18 153.22 357.8 149.84L359.5 140.3H359.51Z" fill="#122030"/>
<path d="M354.49 37.3599L371.94 34.2899C382.99 32.3499 393.42 40.1099 394.85 51.3399L395.62 57.3699C406.26 61.6699 409.24 73.2699 407.96 80.5699C407.96 80.5699 418.94 84.8599 421.44 98.3599C421.75 100.06 420.45 101.63 418.75 101.63H340.41C338.89 101.63 337.65 100.38 337.68 98.8399C337.76 94.5299 338.78 86.3699 344.99 82.8699C338.47 69.9799 345.27 63.1099 345.27 63.1099C345.27 63.1099 343.11 59.7799 342.19 55.0699C340.57 46.7799 346.24 38.8199 354.49 37.3699V37.3599Z" fill="white"/>
<path d="M396.57 62.1399C401.55 67.5399 402.9 75.2099 401.97 80.5599C401.97 80.5599 414.7 85.5299 415.87 101.61" stroke="#EBDDC8" stroke-width="0.75" stroke-miterlimit="10"/>
<path d="M391.08 62.1399C396.06 67.5399 397.41 75.2099 396.48 80.5599C396.48 80.5599 409.21 85.5299 410.38 101.61" stroke="#EBDDC8" stroke-width="0.75" stroke-miterlimit="10"/>
<path d="M385.58 62.1399C390.56 67.5399 391.91 75.2099 390.98 80.5599C390.98 80.5599 403.71 85.5299 404.88 101.61" stroke="#EBDDC8" stroke-width="0.75" stroke-miterlimit="10"/>
<path d="M343.09 101.61C343.09 101.61 341.67 87.7198 350.32 82.8498C346.95 76.1798 347.14 71.1298 348.11 67.7998" stroke="#EBDDC8" stroke-width="0.75" stroke-miterlimit="10"/>
<path d="M348.98 101.61C348.98 101.61 347.56 87.7198 356.21 82.8498C352.84 76.1798 353.03 71.1298 354 67.7998" stroke="#EBDDC8" stroke-width="0.75" stroke-miterlimit="10"/>
<path d="M354.88 101.61C354.88 101.61 353.46 87.7198 362.11 82.8498C358.74 76.1798 358.93 71.1298 359.9 67.7998" stroke="#EBDDC8" stroke-width="0.75" stroke-miterlimit="10"/>
<path d="M348.54 169.64L347.22 181.22C347.22 181.22 288.97 321.73 279.51 423.96H481.85C481.85 423.96 460.37 260.51 411.77 182.77L406.82 169.63H348.54V169.64Z" fill="white"/>
<path d="M347.83 175.84L417.94 193.36C415.93 189.69 413.88 186.15 411.77 182.78L406.82 169.64H348.54L347.84 175.85L347.83 175.84Z" fill="#122030"/>
<path d="M389.55 81L404.32 87.05C411.21 89.87 416.55 95.58 418.97 102.68L432.38 142.19H409.31L411.49 166.04C411.84 169.87 408.86 173.17 405.05 173.17H346.62C340.1 173.17 339.53 163.29 348.46 163.15L352.15 140.24H334L345.84 106.5C349.47 96.15 357.23 87.81 367.24 83.5L369.66 82.46L389.55 81Z" fill="#1F432E"/>
<path d="M392.79 141.42L388.08 112.76C386.64 104.02 391.69 95.4299 400.06 92.7499C402 92.1299 404.07 91.7699 406.22 91.8199" stroke="#122030" stroke-width="0.75" stroke-linecap="round" stroke-linejoin="round"/>
<path d="M350.62 138.27L349.22 134.89C345.87 126.81 346.77 117.57 351.62 110.3L359.6 98.3198" stroke="#122030" stroke-width="0.75" stroke-linecap="round" stroke-linejoin="round"/>
<path d="M454.98 422.34C454.98 422.34 439.2 259.98 403.51 182.76" stroke="#122030" stroke-width="0.75" stroke-linecap="round" stroke-linejoin="round"/>
<path d="M356.11 181.22C356.11 181.22 313.33 320.79 306.39 422.34" stroke="#122030" stroke-width="0.75" stroke-linecap="round" stroke-linejoin="round"/>
<path d="M426.03 422.34C426.03 422.34 416.4 259.98 394.62 182.76" stroke="#122030" stroke-width="0.75" stroke-linecap="round" stroke-linejoin="round"/>
<path d="M365.69 181.22C365.69 181.22 339.58 320.79 335.34 422.34" stroke="#122030" stroke-width="0.75" stroke-linecap="round" stroke-linejoin="round"/>
<path d="M395.86 422.34C395.86 422.34 392.64 259.98 385.35 182.76" stroke="#122030" stroke-width="0.75" stroke-linecap="round" stroke-linejoin="round"/>
<path d="M375.67 181.22C375.67 181.22 366.94 320.79 365.52 422.34" stroke="#122030" stroke-width="0.75" stroke-linecap="round" stroke-linejoin="round"/>
<path d="M349.67 181.52H408.53" stroke="#122030" stroke-width="0.75" stroke-linecap="round" stroke-linejoin="round"/>
<path d="M360.64 43.2399C360.64 43.2399 357.14 55.5599 377.85 58.9899C377.85 58.9899 377.48 66.8199 383.22 70.1099C384.88 71.0599 386.13 72.6099 386.66 74.4699L388.63 81.3299C388.63 81.3299 379.84 85.2399 368.96 85.2399L368.11 75.7899C359.98 79.0399 354.49 72.6399 353.93 65.8599L351.66 65.4199C350.77 65.2499 350.35 64.2099 350.87 63.4599L354.2 58.6599C354.2 58.6599 351.38 46.1999 360.64 43.2399Z" fill="#E9A891"/>
<g style="mix-blend-mode:multiply">
<path d="M369.63 63.7799C369.63 65.7099 368.08 67.2699 366.17 67.2699C364.26 67.2699 362.71 65.7099 362.71 63.7799C362.71 61.8499 364.26 60.2899 366.17 60.2899C368.08 60.2899 369.63 61.8499 369.63 63.7799Z" fill="#E9A891"/>
</g>
<path d="M383.57 54.3299C385.57 56.5799 385.15 60.2499 382.64 62.5199C380.13 64.7899 376.48 64.8099 374.48 62.5599C372.48 60.3099 372.9 56.6399 375.4 54.3699C377.91 52.0999 381.56 52.0799 383.56 54.3299H383.57Z" fill="#E9A891"/>
<path d="M376.05 61.4499C376.05 61.4499 377.43 55.7899 381.76 55.5099" stroke="#122030" stroke-width="0.75" stroke-linecap="round" stroke-linejoin="round"/>
<path d="M360.32 58.3798C360.32 59.4298 359.47 60.2898 358.43 60.2898C357.39 60.2898 356.54 59.4398 356.54 58.3798C356.54 57.3198 357.39 56.4698 358.43 56.4698C359.47 56.4698 360.32 57.3198 360.32 58.3798Z" fill="#122030"/>
<path d="M358.06 67.6699C358.06 67.6699 361.97 68.0599 365.12 64.2399" stroke="#122030" stroke-width="0.75" stroke-linecap="round" stroke-linejoin="round"/>
<path d="M355.82 54.4099C355.82 54.4099 358.56 52.9799 361.82 54.7899" stroke="white" stroke-width="0.75" stroke-miterlimit="10"/>
<path d="M376.16 72.0099C376.05 70.9099 374.65 70.4699 373.99 71.3599C372.1 73.8999 370 75.0799 368.11 75.7899L368.81 83.5499C374.83 82.2099 376.61 76.5999 376.16 72.0199V72.0099Z" fill="#122030"/>
<path d="M411.6 245.82L393.16 142.52H419.54L423.12 162.9C423.12 162.9 429.09 173.5 428.1 194.83C427.11 216.17 423.12 245.24 423.12 245.24C423.12 245.24 426.82 249.25 427.24 256.12C429.93 257.98 431.21 264.28 424.97 264.28H413.81C410.09 264.28 407.4 260.69 408.42 257.07L411.59 245.8L411.6 245.82Z" fill="#E9A891"/>
<path d="M424.8 261.79C424.8 261.79 427.39 259.28 427.25 256.13" stroke="#122030" stroke-width="0.75" stroke-linecap="round" stroke-linejoin="round"/>
<path d="M419.55 142.52H393.17L393.98 147.07L414.62 152.71C417.9 153.61 421 150.75 420.4 147.37L419.55 142.52Z" fill="#122030"/>
<path d="M457.73 42.9898C457.73 38.6098 461.25 35.0498 465.59 35.0498C466.25 35.0498 466.88 35.1398 467.49 35.2898C469.52 31.6498 473.38 29.1798 477.82 29.1798C479.5 29.1798 481.09 29.5298 482.54 30.1698C484.62 27.5898 487.78 25.9398 491.33 25.9398C495.62 25.9398 499.35 28.3498 501.27 31.8998C501.34 31.8998 501.4 31.8898 501.47 31.8898C504.18 31.8898 506.57 33.2798 507.99 35.3898C508.13 35.3898 508.27 35.3698 508.41 35.3698C513.31 35.3698 517.29 39.3798 517.29 44.3398C517.29 47.1398 516.02 49.6298 514.03 51.2798C515.07 52.6298 515.7 54.3198 515.7 56.1598C515.7 59.5598 513.58 62.4498 510.6 63.5798C510.69 64.0798 510.74 64.5998 510.74 65.1198C510.74 70.0698 506.76 74.0898 501.86 74.0898C498.58 74.0898 495.73 72.2898 494.19 69.6298C487.17 69.6298 475.29 68.1798 469.69 59.0398C468.49 59.7798 467.09 60.2198 465.58 60.2198C461.24 60.2198 457.72 56.6698 457.72 52.2798C457.72 50.5398 458.28 48.9398 459.21 47.6398C458.27 46.3298 457.72 44.7298 457.72 42.9998L457.73 42.9898Z" fill="#0F1418"/>
<path d="M462.25 196.63L443.82 195.91L450.04 245.42L462.25 196.63Z" fill="#E9A891"/>
<path d="M453.52 225.84L419.86 415.44H459.19C459.19 415.44 467.89 399.31 464.11 386.08C473.94 374.77 469.4 355.29 469.4 355.29C469.4 355.29 481.88 341.16 476.96 325.12L509.11 225.83H453.51L453.52 225.84Z" fill="#E5772E"/>
<path d="M481.69 233.86L441.6 407.99" stroke="white" stroke-width="0.75" stroke-linecap="round" stroke-linejoin="round"/>
<path d="M453.52 225.84H509.12L476.97 325.13C476.97 325.13 465.28 310.92 465.18 285.66C465.14 276.39 462.38 267.33 457.19 259.68C452.28 252.43 450.39 243.53 451.92 234.89L453.52 225.85V225.84Z" fill="#122030"/>
<path d="M480.56 220.82L479.51 314.38C479.46 319.24 480.59 324.04 482.83 328.34L523.28 406.39L560.66 393.11C560.66 393.11 553.84 375.29 547.04 369C548.55 355.37 536.54 342.27 536.54 342.27C536.54 342.27 539 324.08 524.53 310.04L537.46 220.82H480.56Z" fill="#E5772E"/>
<path d="M516.58 248.75L510.62 313.6L539.74 392.07" stroke="white" stroke-width="0.75" stroke-linecap="round" stroke-linejoin="round"/>
<path d="M522.11 313.6H496.3" stroke="white" stroke-width="0.75" stroke-linecap="round" stroke-linejoin="round"/>
<path d="M480.94 86.7399L462.95 99.2099C454.24 105.25 448.72 114.96 447.95 125.6L444.44 174.09L438.39 197.96L454.09 199.68L448.27 225.02C447.38 228.92 447.53 233.03 448.94 236.76C450.75 241.54 454.79 246.57 463.73 246.27C480.56 245.7 491.62 225.17 503.39 222.55C512.79 220.45 521.98 236.72 531.83 241.7C535.39 243.5 539.64 241.19 540.18 237.21L547.02 187.09L509.29 97.3299L480.92 86.7599L480.94 86.7399Z" fill="#E6B024"/>
<path d="M503.31 172.01L501.34 120.25L526.9 139.17L547.03 187.08L540.19 237.2C539.65 241.18 535.39 243.49 531.84 241.69C521.99 236.71 512.8 220.45 503.4 222.54C500.32 223.23 497.28 225.14 494.18 227.61C488.9 231.81 481.72 225.67 484.95 219.72L497.64 196.35C501.68 188.91 503.65 180.49 503.32 172.01H503.31Z" fill="#122030"/>
<path d="M569.25 197.96C569.62 203.69 531.76 199.49 524.81 202.92L535.02 181.87C535.02 181.87 568.44 185.4 569.25 197.96Z" fill="#122030"/>
<path d="M453.52 122.92L460.19 173.06L454.08 199.68" stroke="#122030" stroke-width="0.75" stroke-linecap="round" stroke-linejoin="round"/>
<path d="M513.18 188.89L503.39 222.54C503.39 222.54 502.11 240.01 516.58 248.75V236.69L539.41 191.9L513.17 188.89H513.18Z" fill="#E9A891"/>
<path d="M503.63 86.7399L526.22 98.1699C536.35 103.3 544.24 112.04 548.33 122.72C555.46 141.36 566.08 172.2 569.25 197.96C567.49 186.81 535.16 203.5 513.18 188.89L516.87 175.24L486.42 97.3099L503.63 86.7399Z" fill="#E6B024"/>
<path d="M527.83 105.14C517.05 105.14 504.95 120.06 504.95 134.19" stroke="#122030" stroke-width="0.75" stroke-linecap="round" stroke-linejoin="round"/>
<path d="M465.99 63.9498L469.21 58.9898C469.46 56.3298 469.43 53.5498 468.7 50.9198C468.7 50.9198 472.74 47.5398 480.83 47.7798C481.15 50.0698 483.11 51.9298 485.69 52.4898C485.94 56.7698 487.69 63.1398 495.48 65.5098C495.48 65.5098 495.31 71.5198 500.92 73.8298V85.3298L503.81 86.7898C503.81 86.7898 497.69 92.3698 488.26 101.64C478.83 110.91 468.03 106.96 478.91 91.5998L478.49 81.2198C472.54 80.8798 466.26 76.6398 467.78 67.7498C467.84 67.4198 467.9 67.0698 467.97 66.7198H467.49C466.09 66.7198 465.24 65.1398 466.01 63.9598L465.99 63.9498Z" fill="#E9A891"/>
<g style="mix-blend-mode:multiply" opacity="0.54">
<path d="M477.63 67.4599C477.63 69.5199 479.28 71.1899 481.32 71.1899C483.36 71.1899 485.01 69.5199 485.01 67.4599C485.01 65.3999 483.36 63.7299 481.32 63.7299C479.28 63.7299 477.63 65.3999 477.63 67.4599Z" fill="#E9A891"/>
</g>
<path d="M495.01 57.8098H478.56" stroke="white" stroke-width="0.75" stroke-linecap="round" stroke-linejoin="round"/>
<path d="M468.34 57.6099C468.34 61.5399 470.63 64.7199 473.45 64.7199C476.27 64.7199 478.56 61.5399 478.56 57.6099C478.56 53.6799 476.27 50.4999 473.45 50.4999C470.63 50.4999 468.34 53.6799 468.34 57.6099Z" stroke="white" stroke-width="0.75" stroke-linecap="round" stroke-linejoin="round"/>
<path d="M472.65 58.3398C472.65 59.5498 473.62 60.5298 474.82 60.5298C476.02 60.5298 476.99 59.5498 476.99 58.3398C476.99 57.1298 476.02 56.1498 474.82 56.1498C473.62 56.1498 472.65 57.1298 472.65 58.3398Z" fill="#122030"/>
<path d="M478.47 81.2098C482.69 81.5198 486.88 80.4298 489.72 77.8398C490.69 76.9498 492.2 77.7698 491.97 79.0698C491.28 82.9698 488.52 88.3398 478.81 89.7298L478.46 81.2098H478.47Z" fill="#122030"/>
<path d="M478.96 92.8799L479.11 96.2899" stroke="#122030" stroke-width="0.75" stroke-linecap="round" stroke-linejoin="round"/>
<path d="M487.01 61.6098L495.77 54.6698C497.8 53.0598 500.76 53.5298 502.2 55.6898L503.05 56.9698C504.43 59.0498 503.87 61.8598 501.79 63.2298L496.78 66.5298C494.61 67.9598 491.73 67.4998 490.11 65.4698L487.02 61.6098H487.01Z" fill="#E9A891"/>
<path d="M500.53 59.9498L499.43 59.2598C498.11 58.4298 496.4 58.6598 495.33 59.7998L491.66 63.7398" stroke="#122030" stroke-width="0.75" stroke-linecap="round" stroke-linejoin="round"/>
<path d="M565.74 188.92C561.06 187.89 550.11 189.48 540.68 190.48C529.9 191.63 519.79 187.9 515.58 185.42" stroke="white" stroke-width="0.75" stroke-linecap="round" stroke-linejoin="round"/>
<path d="M442.91 192.56L453.52 194.42" stroke="white" stroke-width="0.75" stroke-linecap="round" stroke-linejoin="round"/>
<path d="M472.1 67.5098H481.18C481.18 67.5098 482.65 76.6898 478.44 76.5998C474.52 76.5098 472.11 67.5098 472.11 67.5098H472.1Z" fill="#122030"/>
<path d="M481.42 70.3497C481.49 73.0397 481.09 76.6497 478.44 76.5897C476.58 76.5497 475.06 74.4997 473.98 72.3597C476.07 71.2197 478.63 70.4897 481.42 70.3497Z" fill="#E5772E"/>
<path d="M260.01 60.7099C261.67 57.9999 262.48 54.6599 262.09 51.1599C261.25 43.7199 255.28 38.2099 248.45 38.2999C244.88 35.0799 240.07 33.0999 234.75 33.0999C223.78 33.0999 214.89 41.4999 214.89 51.8599C214.89 62.2199 223.78 70.6199 234.75 70.6199C236.93 70.6199 239.02 70.2799 240.98 69.6599H260.9L260.01 60.6999V60.7099Z" fill="#0F1418"/>
<path d="M214.42 51.5198C221.417 51.5198 227.09 45.7935 227.09 38.7298C227.09 31.6661 221.417 25.9398 214.42 25.9398C207.423 25.9398 201.75 31.6661 201.75 38.7298C201.75 45.7935 207.423 51.5198 214.42 51.5198Z" fill="#0F1418"/>
<path d="M260.88 187.78L265.04 309.98L255.96 439.2H191.29L210.58 308.84L207.93 224.04C207.93 224.04 201.12 204.21 210.58 187.79H260.88V187.78Z" fill="#5798F0"/>
<path d="M265.04 309.98L260.88 187.78H210.58C201.12 204.2 207.93 224.03 207.93 224.03L209.12 262.24C209.78 283.4 217.49 303.71 231 319.9L259.98 381.93L265.03 309.97L265.04 309.98Z" fill="#122030"/>
<path d="M233.65 229.79L231.01 319.91L222.68 429.29" stroke="#122030" stroke-width="0.75" stroke-linecap="round" stroke-linejoin="round"/>
<path d="M339.93 419.2L260.89 187.79H210.59C210.59 187.79 200.37 217.22 219.31 233.54L223.81 238.3L277.54 443.65L339.94 419.21L339.93 419.2Z" fill="#1F432E"/>
<path d="M228.17 194.56L275.26 313.49L306.09 421.87" stroke="#122030" stroke-width="0.75" stroke-linecap="round" stroke-linejoin="round"/>
<path d="M242.12 229.79L250.39 193.56H226.71L242.12 229.79Z" fill="#122030"/>
<path d="M230.82 220.62L242.12 229.79L245.85 212.6L241.74 209.74L230.82 220.62Z" fill="#E5772E"/>
<path d="M257.15 58.8198L253.88 54.3598C252.52 46.7798 247.98 41.5598 247.98 41.5598C246.09 56.4298 226.28 53.8998 226.28 53.8998L217.85 88.8998L238.8 90.9498V73.6198C248.29 74.8398 253.28 70.9598 254.17 60.5698H256.28C257.17 60.5698 257.69 59.5398 257.16 58.8198H257.15Z" fill="#E5772E"/>
<path d="M238.8 73.6299C238.8 73.6299 235.37 72.8399 232.27 71.1499C230.34 70.0899 228.22 72.0999 229.1 74.1399C231.74 80.2499 238.8 82.5899 238.8 82.5899V73.6299Z" fill="#122030"/>
<path d="M211.74 83.1898H244.42L241.88 94.7298L256.97 123.4C261.8 132.58 262.45 143.43 258.76 153.13L258.25 154.46L264.57 187.68L265.63 189.18C267.21 191.43 265.62 194.55 262.88 194.55H207.34C204.22 194.55 202.4 190.99 204.21 188.42L207.56 183.67L199.92 137.2C198.07 125.94 200.11 114.38 205.69 104.46L213.66 90.2998L211.74 83.1798V83.1898Z" fill="white"/>
<path d="M239.81 199.7L242.81 205.75C244.19 208.55 243.93 211.89 242.12 214.42L240.9 216.12C238.31 219.74 234.16 221.89 229.74 221.89C226.91 221.89 224.28 220.44 222.74 218.04L219.34 212.72L239.81 199.69V199.7Z" fill="#EAE5DA"/>
<path d="M236.49 121.34L240.27 168.31L248.27 183.73C250.83 188.66 247.29 194.56 241.78 194.56H215.88L236.49 121.34Z" fill="#122030"/>
<path d="M248.55 55.7698C249.566 55.7698 250.39 54.9371 250.39 53.9098C250.39 52.8826 249.566 52.0498 248.55 52.0498C247.534 52.0498 246.71 52.8826 246.71 53.9098C246.71 54.9371 247.534 55.7698 248.55 55.7698Z" fill="#122030"/>
<path d="M250.76 51.1199C249.25 49.9999 246.65 50.5399 245.78 50.8399L245.28 49.3999C245.44 49.3499 249.2 48.0799 251.66 49.8899L250.76 51.1099V51.1199Z" fill="#0F1418"/>
<path d="M239.96 114.07L229.84 168.49L242.19 195.08C243.45 197.79 243.28 200.95 241.75 203.51L237.25 211.01C234.53 215.55 229.66 218.32 224.4 218.32C218.72 218.32 213.52 215.08 210.98 209.96L200.14 188.17C195.4 178.64 194.38 167.67 197.27 157.42L211.02 108.63L239.96 114.07Z" fill="white"/>
<path d="M211.02 108.63C216.78 91.3598 242.78 98.8698 239.96 114.07" stroke="#122030" stroke-width="0.75" stroke-linecap="round" stroke-linejoin="round"/>
<path d="M209.54 112.71L201.86 141.13" stroke="#122030" stroke-width="0.75" stroke-linecap="round" stroke-linejoin="round"/>
<path d="M233.57 56.4798L229.26 51.7498C227.21 49.4898 223.65 49.5998 221.73 51.9698C219.97 54.1498 220.31 57.3598 222.5 59.1098L227.98 63.4898L233.57 56.4898V56.4798Z" fill="#E5772E"/>
<path d="M223.12 54.7998C223.12 54.7998 228.25 54.1698 231.5 56.8098" stroke="#122030" stroke-width="0.75" stroke-linecap="round" stroke-linejoin="round"/>
<path d="M247.45 63.1699C247.36 63.1499 247.26 63.1299 247.17 63.1099C247.05 63.3699 246.95 63.6399 246.87 63.9399C246.45 65.7099 247.12 67.3899 248.36 67.6899C249.51 67.9699 250.74 66.9699 251.26 65.4299C250.37 64.3899 249.04 63.5499 247.45 63.1699Z" fill="#0F1418"/>
<path d="M246.57 59.3398C246.57 61.3098 244.99 62.9098 243.03 62.9098C241.07 62.9098 239.49 61.3098 239.49 59.3398C239.49 57.3698 241.07 55.7698 243.03 55.7698C244.99 55.7698 246.57 57.3698 246.57 59.3398Z" fill="#B05000"/>
<path d="M98.84 203.56L99.13 292.46L55.85 349.92L95.02 378.02L135.61 329.2C148.24 314.01 155.72 295.14 156.96 275.34L161.75 199.06L98.84 203.56Z" fill="#6DA0DB"/>
<path d="M67.25 334.77L58.36 346.58L97.22 374.95L104.25 366.9L67.25 334.77Z" fill="#122030"/>
<path d="M129.86 203.92L123.95 286.22C123.44 293.39 120.95 300.27 116.78 306.09L76.65 362.05" stroke="#122030" stroke-width="0.75" stroke-linecap="round" stroke-linejoin="round"/>
<path d="M108.56 291.73L137.27 291.64" stroke="#122030" stroke-width="0.75" stroke-linecap="round" stroke-linejoin="round"/>
<path d="M110.28 295.2L131.79 304.47" stroke="#122030" stroke-width="0.75" stroke-linecap="round" stroke-linejoin="round"/>
<path d="M156.95 275.33L161.74 199.05L98.83 203.55L98.98 250.01C98.99 253.76 101.71 256.94 105.38 257.52C108.57 258.02 111.4 259.86 113.18 262.57L141.03 305.13C143.39 308.73 148.82 308.25 150.42 304.25C154.09 295.08 156.32 285.32 156.95 275.32V275.33Z" fill="#122030"/>
<path d="M171.83 198.34L200.46 275.06C205.95 289.77 208.47 305.44 207.87 321.14L205.02 395.82L149.28 399.81L150.8 301.79L100.82 203.43L171.83 198.35V198.34Z" fill="#6DA0DB"/>
<path d="M133.18 194.15L174.03 289.77C176.31 295.1 177.44 300.85 177.35 306.65L175.96 397.88" stroke="#122030" stroke-width="0.75" stroke-linecap="round" stroke-linejoin="round"/>
<path d="M159.52 299.14L185.28 288.21" stroke="#122030" stroke-width="0.75" stroke-linecap="round" stroke-linejoin="round"/>
<path d="M166.17 302.01L190.31 300.29" stroke="#122030" stroke-width="0.75" stroke-linecap="round" stroke-linejoin="round"/>
<path d="M155 199.54C155 199.54 166.47 222.04 147.77 228.3" stroke="#122030" stroke-width="0.75" stroke-linecap="round" stroke-linejoin="round"/>
<path d="M93.41 385.85L47.18 353.66L59.1 338.33L106.17 371.1L93.41 385.85Z" fill="#E6E424"/>
<path d="M102.79 89.8598L100.13 76.9798C97.71 65.2498 108.79 55.2398 120.04 59.0598C134.11 63.8398 152.1 72.1098 168.35 86.1198C171.74 89.0498 171.48 94.4298 167.88 97.0698L163.05 100.62L174.26 186.68C174.26 186.68 193.45 202.54 174.21 203.91L97.67 209.39C93.77 209.67 90.56 206.32 90.97 202.39L102.78 89.8698L102.79 89.8598Z" fill="#1F432E"/>
<path d="M139.25 77.3798L144.69 69.8398C140.88 67.7598 137.11 65.9198 133.47 64.2998C132.72 63.9698 131.91 64.7098 132.2 65.4898C133.24 68.2898 133.48 72.4998 133.09 74.0898L139.25 77.3798Z" fill="#122030"/>
<path d="M131.4 124.56L97.6 139.28L90.98 202.38C90.57 206.31 93.78 209.66 97.68 209.38L166.77 204.44L130.76 167.31C123.21 159.52 121.13 147.88 125.51 137.94L131.4 124.57V124.56Z" fill="#122030"/>
<path d="M107.47 83.0099C107.47 83.0099 122.97 71.1598 138.35 86.0498C150.87 98.1598 142.05 116.52 142.05 116.52" stroke="#122030" stroke-width="0.75" stroke-linecap="round" stroke-linejoin="round"/>
<path d="M167.23 140.58L162.46 144.81L57.97 204.32L51.92 206.25C39.4 210.25 34.38 222.65 40.71 233.96C47.04 245.27 62.32 251.19 74.84 247.2L80.89 245.27L185.38 185.76L190.15 181.53C200.01 172.78 202.87 156.52 196.55 145.22C190.22 133.91 177.1 131.84 167.24 140.59L167.23 140.58Z" fill="#C6C280"/>
<path d="M168.57 142.97L163.8 147.2L59.31 206.71L53.26 208.64C40.74 212.64 35.72 225.04 42.05 236.35C48.38 247.66 63.66 253.58 76.18 249.59L82.23 247.66L186.72 188.15L191.49 183.92C201.35 175.17 204.21 158.91 197.89 147.61C191.56 136.3 178.44 134.23 168.58 142.98L168.57 142.97Z" fill="#E6B024"/>
<path d="M186.84 172.96L172.83 180.94C169.52 182.83 165.31 181.64 163.44 178.29C161.57 174.94 162.73 170.7 166.05 168.81L180.06 160.83C183.37 158.94 187.58 160.13 189.45 163.48C191.32 166.83 190.16 171.07 186.84 172.96Z" fill="#C6C280"/>
<path d="M168.35 172.12C168.63 172.62 168.46 173.26 167.96 173.54C167.46 173.82 166.83 173.65 166.55 173.14C166.27 172.64 166.44 172 166.94 171.72C167.44 171.44 168.07 171.61 168.35 172.12Z" fill="#122030"/>
<path d="M171.21 177.24C171.49 177.74 171.32 178.38 170.82 178.66C170.32 178.94 169.69 178.77 169.41 178.26C169.13 177.76 169.3 177.12 169.8 176.84C170.3 176.56 170.93 176.73 171.21 177.24Z" fill="#122030"/>
<path d="M183.46 163.51C183.74 164.01 183.57 164.65 183.07 164.93C182.57 165.21 181.94 165.04 181.66 164.53C181.38 164.03 181.55 163.39 182.05 163.11C182.55 162.83 183.18 163 183.46 163.51Z" fill="#122030"/>
<path d="M186.33 168.63C186.61 169.13 186.44 169.77 185.94 170.05C185.44 170.33 184.81 170.16 184.53 169.65C184.25 169.14 184.42 168.51 184.92 168.23C185.42 167.95 186.05 168.12 186.33 168.63Z" fill="#122030"/>
<path d="M175.53 189.44L177.65 193.23C178.97 195.6 183.88 195.33 188.61 192.64C193.34 189.95 196.1 185.84 194.78 183.48L192.66 179.69L175.53 189.44Z" fill="#122030"/>
<path d="M192.65 179.69C193.98 182.06 191.22 186.16 186.49 188.85C181.76 191.54 176.85 191.81 175.53 189.44C174.2 187.07 176.96 182.97 181.69 180.28C186.42 177.59 191.33 177.32 192.65 179.69Z" fill="#C6C280"/>
<path d="M165.4 159.61L180.17 186C180.72 186.99 182.78 186.88 184.75 185.75C186.72 184.62 187.88 182.91 187.33 181.92L172.56 155.53L165.4 159.61Z" fill="#122030"/>
<path d="M159.2 160.27L161.32 164.06C162.64 166.43 167.55 166.16 172.28 163.47C177.01 160.78 179.77 156.67 178.44 154.31L176.32 150.52L159.19 160.27H159.2Z" fill="#C6C280"/>
<path d="M176.33 150.52C177.66 152.89 174.9 156.99 170.17 159.68C165.44 162.37 160.53 162.64 159.21 160.27C157.89 157.9 160.65 153.8 165.37 151.11C170.1 148.42 175.01 148.15 176.33 150.52Z" fill="#122030"/>
<path d="M171.08 153.51C171.55 154.35 170.45 155.88 168.63 156.92C166.8 157.96 164.94 158.12 164.47 157.28C164 156.44 165.1 154.91 166.92 153.87C168.75 152.83 170.61 152.67 171.08 153.51Z" fill="#C6C280"/>
<path d="M83.25 231.86L69.24 239.84C65.93 241.73 61.72 240.54 59.85 237.19C57.98 233.84 59.14 229.6 62.46 227.71L76.47 219.73C79.78 217.84 83.99 219.03 85.86 222.38C87.73 225.73 86.57 229.97 83.25 231.86Z" fill="#C6C280"/>
<path d="M64.76 231.01C65.04 231.51 64.87 232.15 64.37 232.43C63.87 232.71 63.24 232.54 62.96 232.03C62.68 231.53 62.85 230.89 63.35 230.61C63.85 230.33 64.48 230.5 64.76 231.01Z" fill="#122030"/>
<path d="M67.63 236.13C67.91 236.63 67.74 237.27 67.24 237.55C66.74 237.83 66.11 237.66 65.83 237.15C65.55 236.65 65.72 236.01 66.22 235.73C66.72 235.45 67.35 235.62 67.63 236.13Z" fill="#122030"/>
<path d="M79.88 222.41C80.16 222.91 79.99 223.55 79.49 223.83C78.99 224.11 78.36 223.94 78.08 223.43C77.8 222.93 77.97 222.29 78.47 222.01C78.97 221.73 79.6 221.9 79.88 222.41Z" fill="#122030"/>
<path d="M82.74 227.52C83.02 228.02 82.85 228.66 82.35 228.94C81.85 229.22 81.22 229.05 80.94 228.54C80.66 228.04 80.83 227.4 81.33 227.12C81.83 226.84 82.46 227.01 82.74 227.52Z" fill="#122030"/>
<path d="M71.94 248.34L74.06 252.13C75.39 254.5 80.29 254.23 85.02 251.54C89.75 248.85 92.51 244.74 91.18 242.38L89.06 238.59L71.93 248.34H71.94Z" fill="#122030"/>
<path d="M89.07 238.58C90.39 240.95 87.63 245.05 82.91 247.74C78.18 250.43 73.27 250.7 71.95 248.33C70.63 245.96 73.39 241.86 78.12 239.17C82.85 236.48 87.76 236.21 89.08 238.58H89.07Z" fill="#C6C280"/>
<path d="M61.82 218.5L76.59 244.89C77.14 245.88 79.2 245.77 81.17 244.64C83.15 243.51 84.3 241.8 83.75 240.81L68.98 214.42L61.82 218.5Z" fill="#122030"/>
<path d="M55.62 219.17L57.74 222.96C59.07 225.33 63.97 225.06 68.7 222.37C73.43 219.68 76.19 215.57 74.86 213.21L72.74 209.42L55.61 219.17H55.62Z" fill="#C6C280"/>
<path d="M72.75 209.41C74.08 211.78 71.31 215.88 66.59 218.57C61.86 221.26 56.95 221.53 55.63 219.16C54.31 216.79 57.07 212.69 61.8 210C66.53 207.31 71.44 207.04 72.76 209.41H72.75Z" fill="#122030"/>
<path d="M67.49 212.41C67.96 213.25 66.86 214.78 65.04 215.82C63.21 216.86 61.35 217.02 60.88 216.18C60.41 215.34 61.51 213.81 63.33 212.77C65.16 211.73 67.02 211.57 67.49 212.41Z" fill="#C6C280"/>
<path d="M178.55 58.2098L175.43 51.0898L176.38 43.3198L151.54 40.9298L150.73 49.4898L134.58 74.8898L155.71 86.1798L161.2 74.7498L161.61 74.9198C166.85 77.0598 172.66 73.6098 173.35 67.9598L174.21 60.9698L177.02 60.7698C178.27 60.6798 179.05 59.3698 178.54 58.2198L178.55 58.2098Z" fill="#E9A891"/>
<g style="mix-blend-mode:multiply" opacity="0.42">
<path d="M166.04 59.1799C166.19 61.2899 164.62 63.1199 162.53 63.2699C160.44 63.4199 158.62 61.8299 158.47 59.7199C158.32 57.6099 159.89 55.7799 161.98 55.6299C164.07 55.4799 165.89 57.0699 166.04 59.1799Z" fill="#E9A891"/>
</g>
<path d="M161.2 74.7499C158.73 73.5399 156.17 72.1999 154.02 70.4999C151.76 68.7199 148.46 70.4899 148.77 73.3699C149.22 77.6799 150.37 83.8399 155.72 86.1699L161.21 74.7399L161.2 74.7499Z" fill="#122030"/>
<path d="M163.83 40.7699C163.83 40.7699 162.18 57.0399 149.99 55.3299L145.49 61.3399C144.72 62.3699 143.2 62.3699 142.39 61.3699C136.23 53.6999 136.38 44.1699 137.92 37.8899L163.82 40.7699H163.83Z" fill="white"/>
<path d="M172.57 51.4099C172.83 52.5099 172.17 53.6099 171.08 53.8699C170 54.1299 168.9 53.4599 168.64 52.3699C168.38 51.2699 169.04 50.1699 170.13 49.9099C171.21 49.6499 172.31 50.3199 172.57 51.4099Z" fill="#122030"/>
<path d="M172.7 48.9499C170.46 47.5299 168.02 48.8399 167.99 48.8499L167.26 47.5199C167.39 47.4499 170.52 45.7799 173.51 47.6699L172.7 48.9499Z" fill="white"/>
<path d="M127.58 71.1399L161.86 89.4599" stroke="#122030" stroke-width="0.75" stroke-linecap="round" stroke-linejoin="round"/>
<path d="M154.92 51.7699C156.36 54.9999 155.28 58.6299 152.51 59.8899C149.74 61.1499 146.33 59.5499 144.89 56.3199C143.45 53.0899 144.53 49.4599 147.3 48.1999C150.07 46.9399 153.48 48.5399 154.92 51.7699Z" fill="#E9A891"/>
<path d="M146.49 52.3499C146.49 52.3499 149.49 49.6199 153.71 55.4199" stroke="#122030" stroke-width="0.75" stroke-linecap="round" stroke-linejoin="round"/>
<path d="M126.81 39.9399L139.43 41.2899L139.96 36.1399L127.34 34.7899C125.93 34.6399 124.67 35.6699 124.52 37.0899C124.37 38.5099 125.4 39.7899 126.8 39.9399H126.81Z" fill="#B36DDB"/>
<path d="M135.4 35.6499C134.84 37.2599 134.43 38.9599 134.25 40.7399L139.43 41.2899L139.96 36.1399L135.4 35.6499Z" fill="#122030"/>
<path d="M176.88 41.6699C176.31 31.4499 168.87 22.8999 158.93 21.8399C147.84 20.6499 137.85 29.2299 136.63 40.9899L194.59 47.1899C194.59 47.1899 192.8 43.8499 176.88 41.6699Z" fill="#B36DDB"/>
<path d="M137.79 35.8999L145.72 36.7499C146.06 33.4599 144.53 30.3999 141.99 28.6599C140.17 30.7299 138.73 33.1799 137.79 35.8999Z" fill="white"/>
<path d="M171.74 60.4999L162.69 61.1499C162.69 61.1499 161.88 70.4099 166.07 70.0199C169.98 69.6499 171.74 60.4999 171.74 60.4999Z" fill="#122030"/>
<path d="M162.66 63.9999C162.78 66.6899 163.44 70.2599 166.08 70.0099C167.93 69.8399 169.3 67.6799 170.23 65.4699C168.06 64.4799 165.46 63.9399 162.66 63.9999Z" fill="#E5772E"/>
<path d="M116.9 204.16L123.69 205.95C126.31 206.64 128.66 208.13 130.42 210.2L132.07 212.15C132.61 212.81 132.72 213.72 132.36 214.49C131.83 215.62 130.47 216.07 129.38 215.49L126.89 214.16L130.11 220.66C131.06 222.58 130.19 224.95 128.19 225.68C127.73 225.85 127.21 225.96 126.64 225.97C126.11 228.36 122.86 228.94 121.64 228.71C121.39 230.45 118.59 231.97 116.8 231.46C116.5 232.1 115.99 232.53 115.39 232.82C113.29 233.81 110.82 232.48 110.18 230.23L106.83 218.42C106.44 217.04 106.16 215.63 106 214.2L105.38 208.72L116.91 204.15L116.9 204.16Z" fill="#E9A891"/>
<path d="M106.24 84.4398L59.92 135.73C50.04 146.67 50.98 163.66 61.99 173.46C61.99 173.46 57.09 189.44 74.25 193.83C74.25 193.83 74.19 194.14 74.13 194.68C72.91 206.64 85.51 215.12 96.08 209.58L111.43 201.53C117.17 198.52 119.63 191.53 117.06 185.53L103.86 154.67L139.9 118.5L106.23 84.4398H106.24Z" fill="#1F432E"/>
<path d="M116.05 193.71L122.75 203.86L103.93 216.49L96.79 206.29L116.05 193.71Z" fill="#E5772E"/>
<path d="M99.66 150.8C99.66 150.8 92.53 137.66 80.6 138.64" stroke="#122030" stroke-width="0.75" stroke-linecap="round" stroke-linejoin="round"/>
<path d="M97.81 154.88C97.81 154.88 90.95 152.69 77.07 156.36" stroke="#122030" stroke-width="0.75" stroke-linecap="round" stroke-linejoin="round"/>
<path d="M98.85 207.55L114.34 196.9" stroke="#122030" stroke-width="0.75" stroke-linecap="round" stroke-linejoin="round"/>
<path d="M106.86 214.53L119.45 206.07" stroke="#122030" stroke-width="0.75" stroke-linecap="round" stroke-linejoin="round"/>
<path d="M198.95 149.76C198.95 149.76 206.18 164.73 194.79 180.37" stroke="#122030" stroke-width="0.75" stroke-linecap="round" stroke-linejoin="round"/>
</g>
</g>
<defs>
<clipPath id="clip0_7_205">
<rect width="596.29" height="344.46" fill="white" transform="translate(0 0.529907)"/>
</clipPath>
</defs>
</svg>
