<svg width="94" height="94" viewBox="0 0 94 94" fill="none" xmlns="http://www.w3.org/2000/svg">
<path d="M32.0708 68.3351L32.0652 68.336C31.8408 68.3688 31.7254 68.5083 31.718 68.7545L31.6215 72.0879C31.6145 72.3342 31.724 72.4418 31.9503 72.4108C32.1779 72.3799 32.2957 72.2408 32.3026 71.9946L32.3991 68.6557C32.406 68.4108 32.2966 68.3041 32.0708 68.3351ZM32.0708 68.3351L32.0652 68.336C31.8408 68.3688 31.7254 68.5083 31.718 68.7545L31.6215 72.0879C31.6145 72.3342 31.724 72.4418 31.9503 72.4108C32.1779 72.3799 32.2957 72.2408 32.3026 71.9946L32.3991 68.6557C32.406 68.4108 32.2966 68.3041 32.0708 68.3351ZM32.0708 68.3351L32.0652 68.336C31.8408 68.3688 31.7254 68.5083 31.718 68.7545L31.6215 72.0879C31.6145 72.3342 31.724 72.4418 31.9503 72.4108C32.1779 72.3799 32.2957 72.2408 32.3026 71.9946L32.3991 68.6557C32.406 68.4108 32.2966 68.3041 32.0708 68.3351ZM37.8288 68.0565L37.4654 70.3986L38.0611 70.315L37.8288 68.0565ZM37.8288 68.0565L37.4654 70.3986L38.0611 70.315L37.8288 68.0565ZM32.0708 68.3351L32.0652 68.336C31.8408 68.3688 31.7254 68.5083 31.718 68.7545L31.6215 72.0879C31.6145 72.3342 31.724 72.4418 31.9503 72.4108C32.1779 72.3799 32.2957 72.2408 32.3026 71.9946L32.3991 68.6557C32.406 68.4108 32.2966 68.3041 32.0708 68.3351ZM32.0708 68.3351L32.0652 68.336C31.8408 68.3688 31.7254 68.5083 31.718 68.7545L31.6215 72.0879C31.6145 72.3342 31.724 72.4418 31.9503 72.4108C32.1779 72.3799 32.2957 72.2408 32.3026 71.9946L32.3991 68.6557C32.406 68.4108 32.2966 68.3041 32.0708 68.3351ZM37.8288 68.0565L37.4654 70.3986L38.0611 70.315L37.8288 68.0565ZM40.7737 67.1409L40.4319 67.1913L40.3188 71.1742L40.661 71.1266C40.8868 71.0952 41.0036 70.9539 41.0106 70.7016L41.102 67.4712C41.1094 67.2176 40.9999 67.1072 40.7737 67.1409ZM43.6114 66.7192L43.3352 66.7603L43.2904 68.3656L43.4696 68.3397C43.5781 68.324 43.6525 68.3055 43.6936 68.2843C43.8367 68.2048 43.9106 68.0755 43.9157 67.8962L43.9397 67.0522C43.9466 66.7963 43.8372 66.6855 43.6114 66.7192ZM43.6114 66.7192L43.3352 66.7603L43.2904 68.3656L43.4696 68.3397C43.5781 68.324 43.6525 68.3055 43.6936 68.2843C43.8367 68.2048 43.9106 68.0755 43.9157 67.8962L43.9397 67.0522C43.9466 66.7963 43.8372 66.6855 43.6114 66.7192ZM40.7737 67.1409L40.4319 67.1913L40.3188 71.1742L40.661 71.1266C40.8868 71.0952 41.0036 70.9539 41.0106 70.7016L41.102 67.4712C41.1094 67.2176 40.9999 67.1072 40.7737 67.1409ZM37.8288 68.0565L37.4654 70.3986L38.0611 70.315L37.8288 68.0565ZM32.0708 68.3351L32.0652 68.336C31.8408 68.3688 31.7254 68.5083 31.718 68.7545L31.6215 72.0879C31.6145 72.3342 31.724 72.4418 31.9503 72.4108C32.1779 72.3799 32.2957 72.2408 32.3026 71.9946L32.3991 68.6557C32.406 68.4108 32.2966 68.3041 32.0708 68.3351ZM32.0708 68.3351L32.0652 68.336C31.8408 68.3688 31.7254 68.5083 31.718 68.7545L31.6215 72.0879C31.6145 72.3342 31.724 72.4418 31.9503 72.4108C32.1779 72.3799 32.2957 72.2408 32.3026 71.9946L32.3991 68.6557C32.406 68.4108 32.2966 68.3041 32.0708 68.3351ZM37.8288 68.0565L37.4654 70.3986L38.0611 70.315L37.8288 68.0565ZM40.7737 67.1409L40.4319 67.1913L40.3188 71.1742L40.661 71.1266C40.8868 71.0952 41.0036 70.9539 41.0106 70.7016L41.102 67.4712C41.1094 67.2176 40.9999 67.1072 40.7737 67.1409ZM43.6114 66.7192L43.3352 66.7603L43.2904 68.3656L43.4696 68.3397C43.5781 68.324 43.6525 68.3055 43.6936 68.2843C43.8367 68.2048 43.9106 68.0755 43.9157 67.8962L43.9397 67.0522C43.9466 66.7963 43.8372 66.6855 43.6114 66.7192ZM46.5095 66.7765L46.1461 69.168L46.7414 69.0825L46.5095 66.7765ZM46.5095 66.7765L46.1461 69.168L46.7414 69.0825L46.5095 66.7765ZM43.6114 66.7192L43.3352 66.7603L43.2904 68.3656L43.4696 68.3397C43.5781 68.324 43.6525 68.3055 43.6936 68.2843C43.8367 68.2048 43.9106 68.0755 43.9157 67.8962L43.9397 67.0522C43.9466 66.7963 43.8372 66.6855 43.6114 66.7192ZM40.7737 67.1409L40.4319 67.1913L40.3188 71.1742L40.661 71.1266C40.8868 71.0952 41.0036 70.9539 41.0106 70.7016L41.102 67.4712C41.1094 67.2176 40.9999 67.1072 40.7737 67.1409ZM37.8288 68.0565L37.4654 70.3986L38.0611 70.315L37.8288 68.0565ZM32.0708 68.3351L32.0652 68.336C31.8408 68.3688 31.7254 68.5083 31.718 68.7545L31.6215 72.0879C31.6145 72.3342 31.724 72.4418 31.9503 72.4108C32.1779 72.3799 32.2957 72.2408 32.3026 71.9946L32.3991 68.6557C32.406 68.4108 32.2966 68.3041 32.0708 68.3351ZM32.0708 68.3351L32.0652 68.336C31.8408 68.3688 31.7254 68.5083 31.718 68.7545L31.6215 72.0879C31.6145 72.3342 31.724 72.4418 31.9503 72.4108C32.1779 72.3799 32.2957 72.2408 32.3026 71.9946L32.3991 68.6557C32.406 68.4108 32.2966 68.3041 32.0708 68.3351ZM37.8288 68.0565L37.4654 70.3986L38.0611 70.315L37.8288 68.0565ZM40.7737 67.1409L40.4319 67.1913L40.3188 71.1742L40.661 71.1266C40.8868 71.0952 41.0036 70.9539 41.0106 70.7016L41.102 67.4712C41.1094 67.2176 40.9999 67.1072 40.7737 67.1409ZM43.6114 66.7192L43.3352 66.7603L43.2904 68.3656L43.4696 68.3397C43.5781 68.324 43.6525 68.3055 43.6936 68.2843C43.8367 68.2048 43.9106 68.0755 43.9157 67.8962L43.9397 67.0522C43.9466 66.7963 43.8372 66.6855 43.6114 66.7192ZM46.5095 66.7765L46.1461 69.168L46.7414 69.0825L46.5095 66.7765ZM46.5095 66.7765L46.1461 69.168L46.7414 69.0825L46.5095 66.7765ZM43.6114 66.7192L43.3352 66.7603L43.2904 68.3656L43.4696 68.3397C43.5781 68.324 43.6525 68.3055 43.6936 68.2843C43.8367 68.2048 43.9106 68.0755 43.9157 67.8962L43.9397 67.0522C43.9466 66.7963 43.8372 66.6855 43.6114 66.7192ZM40.7737 67.1409L40.4319 67.1913L40.3188 71.1742L40.661 71.1266C40.8868 71.0952 41.0036 70.9539 41.0106 70.7016L41.102 67.4712C41.1094 67.2176 40.9999 67.1072 40.7737 67.1409ZM37.8288 68.0565L37.4654 70.3986L38.0611 70.315L37.8288 68.0565ZM32.0708 68.3351L32.0652 68.336C31.8408 68.3688 31.7254 68.5083 31.718 68.7545L31.6215 72.0879C31.6145 72.3342 31.724 72.4418 31.9503 72.4108C32.1779 72.3799 32.2957 72.2408 32.3026 71.9946L32.3991 68.6557C32.406 68.4108 32.2966 68.3041 32.0708 68.3351ZM32.0708 68.3351L32.0652 68.336C31.8408 68.3688 31.7254 68.5083 31.718 68.7545L31.6215 72.0879C31.6145 72.3342 31.724 72.4418 31.9503 72.4108C32.1779 72.3799 32.2957 72.2408 32.3026 71.9946L32.3991 68.6557C32.406 68.4108 32.2966 68.3041 32.0708 68.3351ZM37.8288 68.0565L37.4654 70.3986L38.0611 70.315L37.8288 68.0565ZM40.7737 67.1409L40.4319 67.1913L40.3188 71.1742L40.661 71.1266C40.8868 71.0952 41.0036 70.9539 41.0106 70.7016L41.102 67.4712C41.1094 67.2176 40.9999 67.1072 40.7737 67.1409ZM43.6114 66.7192L43.3352 66.7603L43.2904 68.3656L43.4696 68.3397C43.5781 68.324 43.6525 68.3055 43.6936 68.2843C43.8367 68.2048 43.9106 68.0755 43.9157 67.8962L43.9397 67.0522C43.9466 66.7963 43.8372 66.6855 43.6114 66.7192ZM46.5095 66.7765L46.1461 69.168L46.7414 69.0825L46.5095 66.7765ZM60.6112 64.6566L60.2478 67.128L60.8435 67.0407L60.6112 64.6566ZM60.6112 64.6566L60.2478 67.128L60.8435 67.0407L60.6112 64.6566ZM46.5095 66.7765L46.1461 69.168L46.7414 69.0825L46.5095 66.7765ZM43.6114 66.7192L43.3352 66.7603L43.2904 68.3656L43.4696 68.3397C43.5781 68.324 43.6525 68.3055 43.6936 68.2843C43.8367 68.2048 43.9106 68.0755 43.9157 67.8962L43.9397 67.0522C43.9466 66.7963 43.8372 66.6855 43.6114 66.7192ZM40.7737 67.1409L40.4319 67.1913L40.3188 71.1742L40.661 71.1266C40.8868 71.0952 41.0036 70.9539 41.0106 70.7016L41.102 67.4712C41.1094 67.2176 40.9999 67.1072 40.7737 67.1409ZM37.8288 68.0565L37.4654 70.3986L38.0611 70.315L37.8288 68.0565ZM32.0708 68.3351L32.0652 68.336C31.8408 68.3688 31.7254 68.5083 31.718 68.7545L31.6215 72.0879C31.6145 72.3342 31.724 72.4418 31.9503 72.4108C32.1779 72.3799 32.2957 72.2408 32.3026 71.9946L32.3991 68.6557C32.406 68.4108 32.2966 68.3041 32.0708 68.3351ZM92.1749 34.6896C82.5739 36.1374 72.965 37.5287 63.3579 38.9354C50.5765 40.8067 37.796 42.6795 25.0137 44.5439C17.0359 45.708 9.05614 46.8615 1.07504 48.0039C0.451165 48.0935 0.0517175 48.202 0.0544882 48.9952C0.081272 56.464 0.0752687 63.9327 0.0632622 71.401C0.0623386 72.0394 0.235048 72.2043 0.899562 72.0865C2.60633 71.7854 4.33066 71.5844 6.04666 71.3336C11.1504 70.5866 16.2564 69.8516 21.355 69.07C22.4055 68.9093 22.7916 69.131 22.7288 70.285C22.6244 72.1896 22.7233 74.1048 22.6923 76.0149C22.6812 76.7254 22.9038 76.8834 23.6108 76.7795L72.506 69.6336C73.2771 69.5218 73.5459 69.2761 73.5284 68.5055C73.4859 66.6393 73.6022 64.7661 73.4822 62.9063C73.4037 61.6909 73.9006 61.3966 74.9793 61.247C80.862 60.4325 86.7314 59.5239 92.615 58.7155C93.467 58.5986 93.6762 58.3242 93.6674 57.5135C93.6282 53.8664 93.6504 50.2189 93.6504 46.5714H93.6582C93.6582 43.0541 93.6028 39.5354 93.6878 36.0205C93.7178 34.7769 93.3807 34.5076 92.1749 34.6896ZM33.083 71.887C33.0632 72.5711 32.7676 72.9873 32.1955 73.1366C32.2015 73.2539 32.4846 73.277 33.0452 73.2054L33.0262 73.8627C32.5644 73.9242 32.249 73.9205 32.0786 73.8526C31.8579 73.7676 31.7494 73.5514 31.754 73.204C31.125 73.2423 30.8207 72.906 30.841 72.1946L30.9376 68.8677C30.9597 68.1059 31.3439 67.6699 32.0902 67.5595C32.8383 67.4486 33.2017 67.7761 33.1795 68.542L33.083 71.887ZM35.959 71.4906C35.9369 72.2616 35.5518 72.6986 34.8037 72.8016C34.0574 72.9023 33.6954 72.5684 33.7175 71.8001L33.8445 67.3858L34.6249 67.2698L34.4975 71.6925C34.4906 71.9406 34.6 72.0491 34.8263 72.0182C35.0539 71.9868 35.1717 71.8468 35.1786 71.5987L35.3061 67.1687L36.086 67.0527L35.959 71.4906ZM38.2588 72.2431L38.1405 71.0906L37.3435 71.201L37.1555 72.3933L36.3696 72.5L36.679 70.5178L37.3324 66.867L38.4024 66.7072L38.8494 70.2037L39.0475 72.136L38.2588 72.2431ZM41.791 70.5926C41.7688 71.3724 41.3948 71.8131 40.6688 71.9142L39.5162 72.0718L39.6737 66.5168L40.8762 66.3362C41.5689 66.2341 41.9046 66.5741 41.8824 67.3562L41.791 70.5926ZM44.0025 71.4569L43.3689 69.0885L43.2692 69.1171L43.2004 71.5673L42.4199 71.6745L42.5774 66.0808L43.7134 65.9094C44.4066 65.8068 44.7418 66.1491 44.7201 66.9363L44.6961 67.7817C44.6822 68.2769 44.468 68.6321 44.0537 68.8478L44.8573 71.3391L44.0025 71.4569ZM46.9395 71.0518L46.8213 69.8743L46.0242 69.987L45.8363 71.2042L45.0503 71.3128L45.3597 69.2885L46.0131 65.5615L47.0831 65.3994L47.5301 68.9698L47.7282 70.9423L46.9395 71.0518ZM50.4384 70.5663L49.658 70.6748L49.0355 67.583L48.9469 70.7737L48.1969 70.8776L48.3544 65.2063L49.1348 65.0876L49.7822 68.2769L49.8737 64.9749L50.5964 64.8649L50.4384 70.5663ZM53.4692 65.5357L53.4479 66.3081L52.668 66.424L52.6887 65.653C52.6961 65.3962 52.5867 65.2834 52.3604 65.3158L52.3549 65.3167C52.1304 65.3509 52.015 65.4969 52.0081 65.7556L51.9116 69.2543C51.9042 69.513 52.0136 69.6262 52.2399 69.5943C52.468 69.562 52.5853 69.4165 52.5927 69.1578L52.6296 67.8145L52.2902 67.8639L52.3128 67.0467L53.4322 66.8813L53.3731 69.0465C53.351 69.8498 52.9658 70.3048 52.2173 70.4111C51.471 70.515 51.109 70.1662 51.1311 69.3652L51.2276 65.8729C51.2493 65.0733 51.6336 64.6164 52.3803 64.5018C53.1284 64.3868 53.4913 64.7314 53.4692 65.5357ZM56.2491 68.6353C56.227 69.4442 55.8418 69.902 55.0933 70.0092C54.347 70.1136 53.985 69.7625 54.0072 68.9559L54.1341 64.3231L54.9146 64.203L54.7876 68.8446C54.7802 69.1047 54.8901 69.2188 55.1159 69.1869C55.344 69.1541 55.4613 69.0077 55.4687 68.7471L55.5957 64.0986L56.3761 63.978L56.2491 68.6353ZM58.9317 69.3749L56.9076 69.6604L57.0656 63.8717L57.846 63.7512L57.7107 68.7259L58.9543 68.548L58.9317 69.3749ZM61.0411 69.0765L60.9229 67.8593L60.1263 67.9748L59.9384 69.2326L59.1524 69.344L59.4618 67.2518L60.1152 63.4001L61.1852 63.2338L61.6322 66.9252L61.8299 68.9647L61.0411 69.0765ZM63.8816 68.6728L63.2476 66.1898L63.1483 66.2194L63.079 68.7869L62.2986 68.8977L62.4565 63.0361L63.5925 62.8592C64.2857 62.7529 64.6209 63.1123 64.5987 63.9373L64.5752 64.8234C64.5613 65.3417 64.3471 65.7135 63.9328 65.9385L64.7364 68.5508L63.8816 68.6728ZM90.4118 56.6021C80.3268 58.0526 70.2464 59.5373 60.1646 61.0128C49.1824 62.6199 38.2001 64.2284 27.2169 65.8304C19.3222 66.9816 11.4237 68.1073 3.53361 69.2885C2.58832 69.4304 2.43732 69.113 2.44794 68.2875C2.4835 65.4645 2.46179 62.6411 2.46179 59.8182C2.46133 56.9947 2.49273 54.1713 2.44286 51.3488C2.42716 50.4656 2.71347 50.1875 3.59318 50.0609C17.7558 48.0191 31.9105 45.926 46.0704 43.8639C58.9441 41.9888 71.8221 40.1378 84.6977 38.2748C86.5854 38.0013 88.4792 37.7574 90.3555 37.4183C91.0763 37.2881 91.2791 37.4534 91.2772 38.1639C91.2611 43.984 91.262 49.8041 91.2795 55.6241C91.2814 56.269 91.0828 56.5055 90.4118 56.6021ZM63.49 63.7073L63.2143 63.7498L63.169 65.4322L63.3482 65.4054C63.4567 65.3888 63.5316 65.3698 63.5727 65.3477C63.7158 65.2645 63.7897 65.1292 63.7948 64.9411L63.8183 64.057C63.8257 63.7891 63.7163 63.6726 63.49 63.7073ZM60.2478 67.128L60.8435 67.0407L60.6112 64.6566L60.2478 67.128ZM46.1461 69.168L46.7414 69.0825L46.5095 66.7765L46.1461 69.168ZM43.6114 66.7192L43.3352 66.7603L43.2904 68.3656L43.4696 68.3397C43.5781 68.324 43.6525 68.3055 43.6936 68.2843C43.8367 68.2048 43.9106 68.0755 43.9157 67.8962L43.9397 67.0522C43.9466 66.7963 43.8372 66.6855 43.6114 66.7192ZM40.7737 67.1409L40.4319 67.1913L40.3188 71.1742L40.661 71.1266C40.8868 71.0952 41.0036 70.9539 41.0106 70.7016L41.102 67.4712C41.1094 67.2176 40.9999 67.1072 40.7737 67.1409ZM37.4654 70.3986L38.0611 70.315L37.8288 68.0565L37.4654 70.3986ZM32.0708 68.3351L32.0652 68.336C31.8408 68.3688 31.7254 68.5083 31.718 68.7545L31.6215 72.0879C31.6145 72.3342 31.724 72.4418 31.9503 72.4108C32.1779 72.3799 32.2957 72.2408 32.3026 71.9946L32.3991 68.6557C32.406 68.4108 32.2966 68.3041 32.0708 68.3351ZM32.0708 68.3351L32.0652 68.336C31.8408 68.3688 31.7254 68.5083 31.718 68.7545L31.6215 72.0879C31.6145 72.3342 31.724 72.4418 31.9503 72.4108C32.1779 72.3799 32.2957 72.2408 32.3026 71.9946L32.3991 68.6557C32.406 68.4108 32.2966 68.3041 32.0708 68.3351ZM37.8288 68.0565L37.4654 70.3986L38.0611 70.315L37.8288 68.0565ZM40.7737 67.1409L40.4319 67.1913L40.3188 71.1742L40.661 71.1266C40.8868 71.0952 41.0036 70.9539 41.0106 70.7016L41.102 67.4712C41.1094 67.2176 40.9999 67.1072 40.7737 67.1409ZM43.6114 66.7192L43.3352 66.7603L43.2904 68.3656L43.4696 68.3397C43.5781 68.324 43.6525 68.3055 43.6936 68.2843C43.8367 68.2048 43.9106 68.0755 43.9157 67.8962L43.9397 67.0522C43.9466 66.7963 43.8372 66.6855 43.6114 66.7192ZM46.5095 66.7765L46.1461 69.168L46.7414 69.0825L46.5095 66.7765ZM46.5095 66.7765L46.1461 69.168L46.7414 69.0825L46.5095 66.7765ZM43.6114 66.7192L43.3352 66.7603L43.2904 68.3656L43.4696 68.3397C43.5781 68.324 43.6525 68.3055 43.6936 68.2843C43.8367 68.2048 43.9106 68.0755 43.9157 67.8962L43.9397 67.0522C43.9466 66.7963 43.8372 66.6855 43.6114 66.7192ZM40.7737 67.1409L40.4319 67.1913L40.3188 71.1742L40.661 71.1266C40.8868 71.0952 41.0036 70.9539 41.0106 70.7016L41.102 67.4712C41.1094 67.2176 40.9999 67.1072 40.7737 67.1409ZM37.8288 68.0565L37.4654 70.3986L38.0611 70.315L37.8288 68.0565ZM32.0708 68.3351L32.0652 68.336C31.8408 68.3688 31.7254 68.5083 31.718 68.7545L31.6215 72.0879C31.6145 72.3342 31.724 72.4418 31.9503 72.4108C32.1779 72.3799 32.2957 72.2408 32.3026 71.9946L32.3991 68.6557C32.406 68.4108 32.2966 68.3041 32.0708 68.3351ZM32.0708 68.3351L32.0652 68.336C31.8408 68.3688 31.7254 68.5083 31.718 68.7545L31.6215 72.0879C31.6145 72.3342 31.724 72.4418 31.9503 72.4108C32.1779 72.3799 32.2957 72.2408 32.3026 71.9946L32.3991 68.6557C32.406 68.4108 32.2966 68.3041 32.0708 68.3351ZM37.8288 68.0565L37.4654 70.3986L38.0611 70.315L37.8288 68.0565ZM40.7737 67.1409L40.4319 67.1913L40.3188 71.1742L40.661 71.1266C40.8868 71.0952 41.0036 70.9539 41.0106 70.7016L41.102 67.4712C41.1094 67.2176 40.9999 67.1072 40.7737 67.1409ZM43.6114 66.7192L43.3352 66.7603L43.2904 68.3656L43.4696 68.3397C43.5781 68.324 43.6525 68.3055 43.6936 68.2843C43.8367 68.2048 43.9106 68.0755 43.9157 67.8962L43.9397 67.0522C43.9466 66.7963 43.8372 66.6855 43.6114 66.7192ZM46.5095 66.7765L46.1461 69.168L46.7414 69.0825L46.5095 66.7765ZM46.5095 66.7765L46.1461 69.168L46.7414 69.0825L46.5095 66.7765ZM43.6114 66.7192L43.3352 66.7603L43.2904 68.3656L43.4696 68.3397C43.5781 68.324 43.6525 68.3055 43.6936 68.2843C43.8367 68.2048 43.9106 68.0755 43.9157 67.8962L43.9397 67.0522C43.9466 66.7963 43.8372 66.6855 43.6114 66.7192ZM40.7737 67.1409L40.4319 67.1913L40.3188 71.1742L40.661 71.1266C40.8868 71.0952 41.0036 70.9539 41.0106 70.7016L41.102 67.4712C41.1094 67.2176 40.9999 67.1072 40.7737 67.1409ZM37.8288 68.0565L37.4654 70.3986L38.0611 70.315L37.8288 68.0565ZM32.0708 68.3351L32.0652 68.336C31.8408 68.3688 31.7254 68.5083 31.718 68.7545L31.6215 72.0879C31.6145 72.3342 31.724 72.4418 31.9503 72.4108C32.1779 72.3799 32.2957 72.2408 32.3026 71.9946L32.3991 68.6557C32.406 68.4108 32.2966 68.3041 32.0708 68.3351ZM32.0708 68.3351L32.0652 68.336C31.8408 68.3688 31.7254 68.5083 31.718 68.7545L31.6215 72.0879C31.6145 72.3342 31.724 72.4418 31.9503 72.4108C32.1779 72.3799 32.2957 72.2408 32.3026 71.9946L32.3991 68.6557C32.406 68.4108 32.2966 68.3041 32.0708 68.3351ZM37.8288 68.0565L37.4654 70.3986L38.0611 70.315L37.8288 68.0565ZM40.7737 67.1409L40.4319 67.1913L40.3188 71.1742L40.661 71.1266C40.8868 71.0952 41.0036 70.9539 41.0106 70.7016L41.102 67.4712C41.1094 67.2176 40.9999 67.1072 40.7737 67.1409ZM43.6114 66.7192L43.3352 66.7603L43.2904 68.3656L43.4696 68.3397C43.5781 68.324 43.6525 68.3055 43.6936 68.2843C43.8367 68.2048 43.9106 68.0755 43.9157 67.8962L43.9397 67.0522C43.9466 66.7963 43.8372 66.6855 43.6114 66.7192ZM46.5095 66.7765L46.1461 69.168L46.7414 69.0825L46.5095 66.7765ZM46.5095 66.7765L46.1461 69.168L46.7414 69.0825L46.5095 66.7765ZM43.6114 66.7192L43.3352 66.7603L43.2904 68.3656L43.4696 68.3397C43.5781 68.324 43.6525 68.3055 43.6936 68.2843C43.8367 68.2048 43.9106 68.0755 43.9157 67.8962L43.9397 67.0522C43.9466 66.7963 43.8372 66.6855 43.6114 66.7192ZM40.7737 67.1409L40.4319 67.1913L40.3188 71.1742L40.661 71.1266C40.8868 71.0952 41.0036 70.9539 41.0106 70.7016L41.102 67.4712C41.1094 67.2176 40.9999 67.1072 40.7737 67.1409ZM37.8288 68.0565L37.4654 70.3986L38.0611 70.315L37.8288 68.0565ZM32.0708 68.3351L32.0652 68.336C31.8408 68.3688 31.7254 68.5083 31.718 68.7545L31.6215 72.0879C31.6145 72.3342 31.724 72.4418 31.9503 72.4108C32.1779 72.3799 32.2957 72.2408 32.3026 71.9946L32.3991 68.6557C32.406 68.4108 32.2966 68.3041 32.0708 68.3351ZM32.0708 68.3351L32.0652 68.336C31.8408 68.3688 31.7254 68.5083 31.718 68.7545L31.6215 72.0879C31.6145 72.3342 31.724 72.4418 31.9503 72.4108C32.1779 72.3799 32.2957 72.2408 32.3026 71.9946L32.3991 68.6557C32.406 68.4108 32.2966 68.3041 32.0708 68.3351ZM37.8288 68.0565L37.4654 70.3986L38.0611 70.315L37.8288 68.0565ZM40.7737 67.1409L40.4319 67.1913L40.3188 71.1742L40.661 71.1266C40.8868 71.0952 41.0036 70.9539 41.0106 70.7016L41.102 67.4712C41.1094 67.2176 40.9999 67.1072 40.7737 67.1409ZM40.7737 67.1409L40.4319 67.1913L40.3188 71.1742L40.661 71.1266C40.8868 71.0952 41.0036 70.9539 41.0106 70.7016L41.102 67.4712C41.1094 67.2176 40.9999 67.1072 40.7737 67.1409ZM37.8288 68.0565L37.4654 70.3986L38.0611 70.315L37.8288 68.0565ZM32.0708 68.3351L32.0652 68.336C31.8408 68.3688 31.7254 68.5083 31.718 68.7545L31.6215 72.0879C31.6145 72.3342 31.724 72.4418 31.9503 72.4108C32.1779 72.3799 32.2957 72.2408 32.3026 71.9946L32.3991 68.6557C32.406 68.4108 32.2966 68.3041 32.0708 68.3351ZM32.0708 68.3351L32.0652 68.336C31.8408 68.3688 31.7254 68.5083 31.718 68.7545L31.6215 72.0879C31.6145 72.3342 31.724 72.4418 31.9503 72.4108C32.1779 72.3799 32.2957 72.2408 32.3026 71.9946L32.3991 68.6557C32.406 68.4108 32.2966 68.3041 32.0708 68.3351ZM32.0708 68.3351L32.0652 68.336C31.8408 68.3688 31.7254 68.5083 31.718 68.7545L31.6215 72.0879C31.6145 72.3342 31.724 72.4418 31.9503 72.4108C32.1779 72.3799 32.2957 72.2408 32.3026 71.9946L32.3991 68.6557C32.406 68.4108 32.2966 68.3041 32.0708 68.3351Z" fill="#1F432E"/>
<path d="M30.4758 19.9027C30.43 17.8281 31.2289 16.0172 32.7436 14.4988C37.2207 10.0119 41.7023 5.53057 46.1618 1.02613C46.6679 0.51475 46.9501 0.499506 47.5181 0.997023C51.3722 4.37108 51.3089 7.146 47.6922 10.4323C45.0605 12.8233 42.6301 15.437 40.1142 17.9556C38.8106 19.2606 38.8014 20.0838 40.0888 21.3804C41.8935 23.1982 43.7005 25.0137 45.5245 26.8111C46.7261 27.9955 47.404 27.9946 48.6158 26.8C50.5012 24.9411 52.3632 23.0592 54.2343 21.1855C54.8739 20.5448 55.2023 19.8768 54.5904 19.0019C54.0095 18.1713 53.5671 17.944 52.74 18.8402C50.975 20.7531 49.0683 22.5348 47.2507 24.4006C46.7995 24.8635 46.4518 25.0155 46.0251 24.4344C45.9997 24.3997 45.9669 24.3697 45.9346 24.3406C42.5996 21.3814 42.1858 19.3155 45.7919 15.9835C48.4043 13.5698 50.8582 10.9825 53.3519 8.44222C53.8991 7.88465 54.2334 7.69988 54.8804 8.37801C56.8578 10.4508 58.9409 12.4219 60.9395 14.4743C64.149 17.7699 64.1213 22.6716 60.8818 25.9306C56.5354 30.3029 52.1563 34.642 47.8229 39.0273C47.2267 39.6301 46.9034 39.6421 46.299 39.0301C41.7845 34.4577 37.2271 29.9269 32.6919 25.3749C31.2142 23.8916 30.4448 22.1025 30.4758 19.9017V19.9027Z" fill="#1F432E"/>
<g opacity="0.99">
<path d="M11.1384 62.8527C11.1217 64.6996 10.2092 65.7528 8.4004 66.0124C6.59619 66.2665 5.70217 65.4701 5.71879 63.6232L5.79083 55.5733C5.80746 53.7306 6.71764 52.6769 8.52232 52.4113C10.3311 52.1452 11.2275 52.9352 11.2109 54.7825L11.1952 56.5577L9.30874 56.8317L9.32444 55.0578C9.32952 54.4665 9.05891 54.2087 8.51262 54.284L8.49923 54.2859C7.95709 54.3653 7.68325 54.7026 7.6777 55.298L7.60566 63.3548C7.60012 63.9503 7.87119 64.209 8.41749 64.1314C8.9684 64.0533 9.24686 63.7161 9.25194 63.1206L9.27965 60.0297L8.45951 60.1475L8.47614 58.2669L11.1827 57.8757L11.1384 62.8522V62.8527Z" fill="#1F432E"/>
<path d="M12.8331 51.9844L17.7262 51.262L17.7096 53.1439L14.7029 53.5856L14.6692 57.3712L17.2557 56.9961L17.239 58.8841L14.6526 59.2573L14.6189 63.0425L17.6256 62.6139L17.6089 64.4958L12.7158 65.1887L12.8336 51.9849L12.8331 51.9844Z" fill="#1F432E"/>
<path d="M19.1264 51.055L21.8731 50.6485C23.5485 50.4046 24.3778 51.2116 24.3617 53.07L24.3441 55.0656C24.334 56.2339 23.8311 57.0751 22.8368 57.5883L24.902 63.4592L22.8355 63.7534L21.1873 58.1653L20.9472 58.2336L20.8955 64.0292L19.0091 64.2972L19.1268 51.0554L19.1264 51.055ZM20.9962 52.6607L20.9624 56.457L21.3956 56.3937C21.6579 56.3554 21.838 56.3115 21.9359 56.2611C22.2795 56.0717 22.4531 55.765 22.4568 55.3414L22.4743 53.3472C22.4799 52.7434 22.2093 52.4815 21.6625 52.5623L20.9957 52.6607H20.9962Z" fill="#1F432E"/>
<path d="M31.2696 57.8331L31.8408 62.4688L29.9341 62.7413L29.5924 59.9724L27.6658 60.25L27.2673 63.122L25.3675 63.3927L26.0223 58.6134L27.4317 49.823L30.0181 49.4382L31.2687 57.8331H31.2696ZM29.3633 58.1098L28.6923 52.6829L27.9235 58.3186L29.3633 58.1098Z" fill="#1F432E"/>
<path d="M35.1458 62.193C33.6538 62.2526 32.9154 61.4313 32.9306 59.729L33.0027 51.5784C33.0193 49.7126 33.9295 48.6455 35.7342 48.3757C37.543 48.105 38.4393 48.9051 38.4227 50.7751L38.407 52.5725L36.5206 52.8506L36.5363 51.0546C36.5414 50.4559 36.2708 50.1949 35.7245 50.2716L35.7111 50.2734C35.1689 50.3538 34.8951 50.6956 34.8895 51.2985L34.8175 59.456C34.812 60.0588 35.083 60.3208 35.6293 60.2418C36.1802 60.1623 36.4587 59.8209 36.4638 59.2181L36.4795 57.422L38.3659 57.1476L38.3502 58.9451C38.3345 60.7106 37.5217 61.7611 35.9124 62.096L35.7757 62.4891C35.941 62.375 36.0948 62.3076 36.237 62.2873C36.3747 62.2674 36.5035 62.2942 36.6226 62.3681C36.7464 62.4411 36.8069 62.5908 36.805 62.8176L36.799 63.4911C36.7958 63.8764 36.5626 64.1203 36.1004 64.2224C36.038 64.2404 35.9623 64.2556 35.8736 64.2681C35.8334 64.2736 35.7891 64.2778 35.7402 64.2801C35.216 64.3411 34.9556 64.1655 34.9593 63.753L34.9611 63.5558L35.7475 63.4435L35.7457 63.6408C35.7452 63.7087 35.7891 63.7364 35.8782 63.7239C35.9669 63.7115 36.0117 63.6708 36.0126 63.6029L36.0186 62.9294C36.0191 62.8522 35.9775 62.8176 35.893 62.825L35.8865 62.8259C35.8108 62.8365 35.7572 62.8827 35.7254 62.9645L34.9653 63.073L35.1463 62.1916L35.1458 62.193Z" fill="#1F432E"/>
<path d="M45.3625 55.7803L45.9337 60.4455L44.027 60.7204L43.6852 57.9339L41.7587 58.2138L41.3601 61.1042L39.4603 61.3773L40.1152 56.567L41.5245 47.7198L44.111 47.3317L45.3615 55.7798L45.3625 55.7803ZM41.4414 47.4329L40.5326 47.0721L40.7704 46.5534C41.0734 45.8951 41.4631 45.5163 41.9388 45.4174L41.9854 45.4105C42.2833 45.3657 42.6661 45.4576 43.1348 45.6868C43.3601 45.7981 43.5462 45.8429 43.6926 45.8207C43.8169 45.8018 43.9129 45.7353 43.9808 45.6207L44.2583 45.1223L45.1196 45.5787L44.842 46.0845C44.5534 46.5917 44.2001 46.8878 43.7822 46.9733L43.7356 46.9802C43.4377 47.025 43.0591 46.9317 42.5996 46.7012C42.3077 46.5589 42.1332 46.4878 42.0754 46.4868L42.0487 46.491C41.924 46.5099 41.8011 46.6508 41.6788 46.9146L41.4409 47.4338L41.4414 47.4329ZM43.4557 56.0589L42.7848 50.5972L42.0159 56.2695L43.4557 56.0593V56.0589Z" fill="#1F432E"/>
<path d="M52.2431 56.9273C52.2265 58.8092 51.314 59.8828 49.5052 60.1489C47.701 60.4094 46.8069 59.5987 46.8236 57.7167L46.8956 49.5149C46.9122 47.6375 47.8224 46.563 49.6271 46.2914C51.4359 46.0189 52.3322 46.8236 52.3156 48.7055L52.2436 56.9277L52.2431 56.9273ZM50.4287 48.9873C50.4338 48.3849 50.1632 48.1226 49.6169 48.1997L49.6035 48.2016C49.0614 48.2829 48.7875 48.6265 48.782 49.2331L48.71 57.4419C48.7044 58.0484 48.9755 58.3122 49.5218 58.2327C50.0727 58.1528 50.3512 57.8091 50.3562 57.2021L50.4283 48.9873H50.4287Z" fill="#1F432E"/>
<path d="M57.3246 45.3417L62.2178 44.6007L62.2011 46.521L59.1944 46.9737L59.1607 50.8365L61.7472 50.4517L61.7306 52.3785L59.1441 52.7615L59.0933 58.5413L57.2069 58.8153L57.3246 45.3421V45.3417Z" fill="#1F432E"/>
<path d="M68.6759 54.5187C68.6593 56.4145 67.7468 57.4964 65.9379 57.7653C64.1337 58.0281 63.2397 57.2118 63.2563 55.316L63.3284 47.0532C63.345 45.162 64.2552 44.0792 66.0599 43.8052C67.8687 43.5299 68.765 44.3406 68.7484 46.2364L68.6763 54.5192L68.6759 54.5187ZM66.8615 46.5205C66.8666 45.9135 66.596 45.6493 66.0497 45.7274L66.0363 45.7292C65.4942 45.811 65.2203 46.1579 65.2148 46.7686L65.1427 55.0384C65.1372 55.6495 65.4083 55.9147 65.9546 55.8348C66.5055 55.7539 66.7839 55.4079 66.789 54.7963L66.8611 46.5205H66.8615Z" fill="#1F432E"/>
<path d="M70.3706 43.3622L73.1174 42.9437C74.7927 42.6929 75.6221 43.5179 75.6059 45.4197L75.5884 47.462C75.5782 48.6575 75.0754 49.5186 74.0811 50.0452L76.1462 56.051L74.0797 56.354L72.4316 50.6365L72.1915 50.7067L72.1398 56.6381L70.2533 56.9144L70.3711 43.3622H70.3706ZM72.2404 45.0035L72.2067 48.889L72.6399 48.8238C72.9022 48.7846 73.0823 48.7393 73.1802 48.6876C73.5237 48.4935 73.6974 48.1794 73.7011 47.7456L73.7186 45.7048C73.7242 45.0867 73.4536 44.8192 72.9068 44.9019L72.24 45.0031L72.2404 45.0035Z" fill="#1F432E"/>
<path d="M82.0636 41.5758L82.047 43.5132L80.2802 43.7826L80.179 55.4592L78.2926 55.7364L78.3938 44.0694L76.627 44.3378L76.6436 42.405L82.0631 41.5754L82.0636 41.5758Z" fill="#1F432E"/>
<path d="M83.2638 41.3915L88.1569 40.64L88.1403 42.5824L85.1336 43.0421L85.0999 46.9497L87.6863 46.5589L87.6697 48.5078L85.0832 48.8963L85.0495 52.8039L88.0562 52.3577L88.0396 54.3002L83.1465 55.0222L83.2643 41.392L83.2638 41.3915Z" fill="#1F432E"/>
</g>
<path d="M18.6577 87.9863V88.3258C18.6577 89.1056 18.2753 89.4954 17.5101 89.4954H17.0414V90.9746C17.0414 91.7544 16.6572 92.1443 15.8892 92.1443C15.1213 92.1443 14.7417 91.7544 14.7417 90.9746V89.8696C14.7417 89.0926 15.1241 88.7041 15.8892 88.7041H16.2416V87.5774C16.2416 87.328 16.1257 87.2033 15.8934 87.2033H15.8846C15.6551 87.2033 15.5406 87.328 15.5406 87.5774V87.8786H14.7412V87.5774C14.7412 86.8004 15.1236 86.412 15.8888 86.412C16.654 86.412 17.0409 86.8004 17.0409 87.5774V88.7041H17.5097C17.7419 88.7041 17.8578 88.578 17.8578 88.3258V87.5262C17.8578 86.345 17.2501 85.7546 16.0352 85.7546C14.8202 85.7546 14.2083 86.3639 14.2083 87.5821V91.0263C14.2083 92.2075 14.8174 92.7979 16.0352 92.7979C17.2529 92.7979 17.8578 92.19 17.8578 90.9746V90.7898H18.6618V90.9746C18.6618 92.7148 17.7863 93.5846 16.0352 93.5846C14.2841 93.5846 13.4044 92.7319 13.4044 91.0259V87.5816C13.4044 85.8387 14.2813 84.967 16.0352 84.967C17.789 84.967 18.6618 85.8197 18.6618 87.5257V87.9858H18.6577V87.9863ZM15.8204 89.4913C15.5882 89.4913 15.4722 89.6174 15.4722 89.8696V90.9746C15.4722 91.2268 15.5882 91.3529 15.8204 91.3529C16.0527 91.3529 16.1728 91.2268 16.1728 90.9746V89.4954L15.8204 89.4913Z" fill="#1F432E"/>
<path d="M19.7793 85.1522H21.5503C22.6309 85.155 23.1707 85.7472 23.1707 86.9284V88.1969C23.1707 88.9393 22.8512 89.4285 22.2121 89.6631L23.5789 93.5892H22.2462L21.1499 89.8784L20.9952 89.9001V93.5897H19.7789V85.1527L19.7793 85.1522ZM20.9962 86.3524V88.7693H21.2755C21.4446 88.7693 21.5605 88.7577 21.6237 88.7346C21.8445 88.6459 21.9548 88.4667 21.9548 88.1969V86.9284C21.9548 86.5441 21.7784 86.3524 21.4261 86.3524H20.9962Z" fill="#1F432E"/>
<path d="M24.2675 85.1522H27.4229V86.3519H25.4843V88.7688H27.1523V89.9726H25.4843V92.3895H27.4229V93.5892H24.2675V85.1522Z" fill="#1F432E"/>
<path d="M31.7341 91.9511C31.7341 93.1323 31.1509 93.7241 29.9844 93.7273C28.8207 93.7273 28.2393 93.1356 28.2393 91.9511V86.7907C28.2393 85.6095 28.8212 85.0192 29.9844 85.0192C31.1477 85.0192 31.7341 85.61 31.7341 86.7907V87.9262H30.5178V86.7907C30.5178 86.4124 30.3414 86.2216 29.989 86.2188H29.9803C29.6307 86.2188 29.4557 86.4096 29.4557 86.7907V91.9511C29.4557 92.3323 29.6321 92.523 29.9844 92.523C30.3368 92.523 30.5173 92.3323 30.5173 91.9511V89.9731H29.9886V88.7693H31.7337V91.9511H31.7341Z" fill="#1F432E"/>
<path d="M32.7875 85.1522H34.0038V93.5892H32.7875V85.1522Z" fill="#1F432E"/>
<path d="M38.552 91.9511C38.552 93.1323 37.9688 93.7241 36.8023 93.7273C35.6386 93.7273 35.0572 93.1356 35.0572 91.9511V86.7907C35.0572 85.6095 35.639 85.0192 36.8023 85.0192C37.9655 85.0192 38.552 85.61 38.552 86.7907V91.9511ZM37.3352 86.7907C37.3352 86.4124 37.1588 86.2216 36.8064 86.2188H36.7977C36.4481 86.2188 36.2731 86.4096 36.2731 86.7907V91.9511C36.2731 92.3323 36.4495 92.523 36.8018 92.523C37.1542 92.523 37.3347 92.3323 37.3347 91.9511V86.7907H37.3352Z" fill="#1F432E"/>
<path d="M39.5836 85.1522H40.8L41.9521 90.0456V85.1522H43.0785V93.5892H41.8621L40.7529 88.8506V93.5892H39.5836V85.1522Z" fill="#1F432E"/>
<path d="M47.5878 90.5963L47.9831 93.5892H46.7538L46.5174 91.8006H45.2752L45.0346 93.5892H43.8095L44.2048 90.6092L45.0646 85.1522H46.7326L47.5878 90.5963ZM46.3585 90.5963L45.8944 87.0873L45.4303 90.5963H46.359H46.3585Z" fill="#1F432E"/>
<path d="M48.7141 93.5892V85.1522H49.9305V92.3895H51.8691V93.5892H48.7137H48.7141Z" fill="#1F432E"/>
<path d="M56.009 91.9511C56.009 93.1323 55.4258 93.7241 54.2593 93.7273C53.0956 93.7273 52.5142 93.1356 52.5142 91.9511V86.7907C52.5142 85.6095 53.096 85.0192 54.2593 85.0192C55.4225 85.0192 56.009 85.61 56.009 86.7907V87.9262H54.7927V86.7907C54.7927 86.4124 54.6163 86.2216 54.2639 86.2188H54.2551C53.9056 86.2188 53.7305 86.4096 53.7305 86.7907V91.9511C53.7305 92.3323 53.9069 92.523 54.2593 92.523C54.6116 92.523 54.7922 92.3323 54.7922 91.9511V89.9731H54.2634V88.7693H56.0085V91.9511H56.009Z" fill="#1F432E"/>
<path d="M59.6885 90.9316L61.103 85.1522H62.3194V93.5892H61.1543V88.8547L60.1139 93.5892H59.2886L58.2182 88.8547V93.5892H57.0402V85.1522H58.2565L59.6881 90.9316H59.6885Z" fill="#1F432E"/>
<path d="M63.0074 90.8157H64.2238V91.9512C64.2238 92.3323 64.4016 92.5231 64.7567 92.5231C65.1118 92.5231 65.2854 92.3323 65.2854 91.9512V85.1527H66.5018V91.9512C66.5018 93.1352 65.9199 93.7274 64.7567 93.7274C63.5902 93.7246 63.007 93.1324 63.007 91.9512V90.8157H63.0074Z" fill="#1F432E"/>
<path d="M69.8982 89.556C69.8982 89.258 69.835 89.0816 69.7089 89.0271C69.6401 88.9956 69.5297 88.9799 69.3778 88.9799C69.3404 88.9799 69.3016 88.9813 69.2619 88.9841C69.0153 88.9957 68.8777 89.1061 68.8491 89.3153L68.8361 89.6548H67.6198L67.8003 85.1527H71.1146V86.3524H68.9696L68.8837 88.1669C69.0901 87.929 69.3709 87.8098 69.7265 87.8098C69.7749 87.8098 69.8253 87.8126 69.877 87.8186C70.3009 87.856 70.6237 88.0265 70.844 88.3304C71.0245 88.5771 71.1146 88.9855 71.1146 89.556V91.9512C71.1146 93.1324 70.5313 93.7228 69.3649 93.7228C68.1984 93.7228 67.6198 93.1324 67.6198 91.9512V90.9534H68.8361V91.9512C68.8361 92.3323 69.0107 92.5231 69.3607 92.5231H69.3695C69.7218 92.5203 69.8982 92.3295 69.8982 91.9512V89.556Z" fill="#1F432E"/>
<path d="M74.5877 85.1522V92.3895H75.7269V93.5892H72.2321V92.3895H73.3714V86.3519H72.2321V85.1522H74.5877Z" fill="#1F432E"/>
<path d="M79.1229 86.7907C79.1229 86.4124 78.9465 86.2216 78.5942 86.2188H78.5854C78.2358 86.2188 78.0608 86.4096 78.0608 86.7907V87.9216H76.8445V86.7907C76.8445 85.6095 77.4263 85.0192 78.5896 85.0192C79.7528 85.0192 80.3393 85.61 80.3393 86.7907V88.257C80.3393 88.8104 80.1172 89.2016 79.6729 89.4308C80.1172 89.6603 80.3393 90.0516 80.3393 90.6046V91.9507C80.3393 93.1319 79.756 93.7222 78.5896 93.7222C77.4231 93.7222 76.8445 93.1319 76.8445 91.9507V90.8198H78.0608V91.9507C78.0608 92.3318 78.2354 92.5226 78.5854 92.5226H78.5942C78.9465 92.5198 79.1229 92.329 79.1229 91.9507V90.6046C79.1229 90.2978 79.0583 90.1158 78.9294 90.0585C78.8606 90.0299 78.7544 90.0156 78.6113 90.0156H78.2114V88.8159H78.7059C78.8205 88.8159 78.9064 88.7988 78.9636 88.7642C79.0698 88.7041 79.1225 88.5318 79.1225 88.2482V86.7903L79.1229 86.7907Z" fill="#1F432E"/>
</svg>
