<svg width="296" height="39" viewBox="0 0 296 39" fill="none" xmlns="http://www.w3.org/2000/svg">
<path d="M0.00185849 19.344C-0.0438586 17.2694 0.755036 15.4586 2.2697 13.9401C6.74675 9.45325 11.2284 4.9719 15.6879 0.467455C16.194 -0.0439201 16.4762 -0.0591644 17.0442 0.438353C20.8983 3.81241 20.835 6.58733 17.2183 9.87362C14.5865 12.2647 12.1561 14.8784 9.64032 17.3969C8.33669 18.7019 8.32745 19.5251 9.61492 20.8218C11.4196 22.6395 13.2266 24.455 15.0506 26.2524C16.2522 27.4369 16.9301 27.4359 18.1419 26.2413C20.0273 24.3825 21.8893 22.5005 23.7604 20.6268C24.4 19.9861 24.7284 19.3181 24.1165 18.4432C23.5356 17.6126 23.0932 17.3853 22.2661 18.2815C20.5011 20.1944 18.5944 21.9762 16.7768 23.842C16.3256 24.3048 15.9779 24.4568 15.5512 23.8757C15.5258 23.8411 15.493 23.811 15.4607 23.7819C12.1257 20.8227 11.7119 18.7569 15.318 15.4248C17.9304 13.0112 20.3843 10.4238 22.878 7.88355C23.4252 7.32598 23.7595 7.14121 24.4065 7.81934C26.3839 9.8921 28.467 11.8632 30.4656 13.9157C33.6751 17.2112 33.6473 22.1129 30.4079 25.3719C26.0615 29.7443 21.6824 34.0833 17.349 38.4686C16.7528 39.0714 16.4295 39.0835 15.8251 38.4714C11.3106 33.899 6.75321 29.3683 2.21798 24.8162C0.740259 23.3329 -0.0290814 21.5447 0.00185849 19.344Z" fill="white"/>
<path d="M59.18 15.8844C58.84 15.3244 58.37 14.8944 57.77 14.5944C57.19 14.2944 56.5 14.1444 55.7 14.1444C54.22 14.1444 53.05 14.6244 52.19 15.5844C51.35 16.5444 50.93 17.8344 50.93 19.4544C50.93 21.2744 51.38 22.6644 52.28 23.6244C53.2 24.5644 54.53 25.0344 56.27 25.0344C58.33 25.0344 59.8 24.1044 60.68 22.2444H54.77V18.0144H65.75V23.7144C65.29 24.8344 64.61 25.8844 63.71 26.8644C62.83 27.8444 61.71 28.6544 60.35 29.2944C58.99 29.9144 57.44 30.2244 55.7 30.2244C53.58 30.2244 51.7 29.7744 50.06 28.8744C48.44 27.9544 47.18 26.6844 46.28 25.0644C45.4 23.4244 44.96 21.5544 44.96 19.4544C44.96 17.3744 45.4 15.5244 46.28 13.9044C47.18 12.2644 48.44 10.9944 50.06 10.0944C51.68 9.17439 53.55 8.71439 55.67 8.71439C58.33 8.71439 60.53 9.35439 62.27 10.6344C64.01 11.9144 65.09 13.6644 65.51 15.8844H59.18ZM74.2651 13.6344V17.0844H81.0151V21.5544H74.2651V25.3644H81.9151V30.0744H68.3851V8.92439H81.9151V13.6344H74.2651ZM95.5306 30.0744L91.3306 22.2744H90.7006V30.0744H84.8206V8.92439H94.0906C95.7906 8.92439 97.2306 9.22439 98.4106 9.82439C99.5906 10.4044 100.481 11.2144 101.081 12.2544C101.681 13.2744 101.981 14.4244 101.981 15.7044C101.981 17.1444 101.581 18.4144 100.781 19.5144C100.001 20.5944 98.8506 21.3644 97.3306 21.8244L102.101 30.0744H95.5306ZM90.7006 18.2544H93.6106C94.4106 18.2544 95.0106 18.0644 95.4106 17.6844C95.8106 17.3044 96.0106 16.7544 96.0106 16.0344C96.0106 15.3544 95.8006 14.8244 95.3806 14.4444C94.9806 14.0444 94.3906 13.8444 93.6106 13.8444H90.7006V18.2544ZM118.035 26.6244H110.535L109.395 30.0744H103.215L110.925 8.92439H117.705L125.385 30.0744H119.175L118.035 26.6244ZM116.565 22.1244L114.285 15.2844L112.035 22.1244H116.565ZM137.021 24.8244C137.901 24.8244 138.671 24.6144 139.331 24.1944C140.011 23.7744 140.541 23.1644 140.921 22.3644H147.251C146.791 24.4844 145.831 26.2244 144.371 27.5844C142.931 28.9444 141.131 29.7844 138.971 30.1044V31.1844C139.951 31.1844 140.841 31.4744 141.641 32.0544C142.461 32.6344 142.871 33.5244 142.871 34.7244C142.871 35.9444 142.441 36.8444 141.581 37.4244C140.721 38.0044 139.701 38.2944 138.521 38.2944H133.631V35.2044H137.831C138.491 35.2044 138.821 34.9944 138.821 34.5744C138.821 34.1544 138.491 33.9444 137.831 33.9444H135.491V30.1344C133.691 29.9144 132.121 29.3244 130.781 28.3644C129.441 27.4044 128.401 26.1644 127.661 24.6444C126.941 23.1044 126.581 21.3744 126.581 19.4544C126.581 17.3744 127.011 15.5244 127.871 13.9044C128.751 12.2644 129.991 10.9944 131.591 10.0944C133.191 9.17439 135.031 8.71439 137.111 8.71439C139.751 8.71439 141.971 9.42439 143.771 10.8444C145.571 12.2444 146.731 14.1544 147.251 16.5744H140.921C140.541 15.7744 140.011 15.1644 139.331 14.7444C138.671 14.3244 137.901 14.1144 137.021 14.1144C135.661 14.1144 134.571 14.6044 133.751 15.5844C132.951 16.5444 132.551 17.8344 132.551 19.4544C132.551 21.0944 132.951 22.4044 133.751 23.3844C134.571 24.3444 135.661 24.8244 137.021 24.8244ZM163.415 26.6244H155.915L154.775 30.0744H148.595L156.305 8.92439H163.085L170.765 30.0744H164.555L163.415 26.6244ZM161.945 22.1244L159.665 15.2844L157.415 22.1244H161.945ZM153.155 7.57438C153.715 4.31439 155.215 2.68439 157.655 2.68439C158.115 2.68439 158.525 2.75439 158.885 2.89439C159.265 3.03439 159.695 3.23439 160.175 3.49439C160.515 3.67439 160.805 3.81439 161.045 3.91439C161.285 4.01439 161.525 4.06439 161.765 4.06439C162.505 4.06439 162.945 3.60439 163.085 2.68439H166.055C165.775 4.38438 165.245 5.62438 164.465 6.40439C163.705 7.16439 162.735 7.54439 161.555 7.54439C161.115 7.54439 160.715 7.48439 160.355 7.36439C159.995 7.22439 159.555 7.02439 159.035 6.76439C158.695 6.58439 158.405 6.44439 158.165 6.34439C157.925 6.24439 157.685 6.19438 157.445 6.19438C156.725 6.19438 156.275 6.65438 156.095 7.57438H153.155ZM182.822 30.2844C180.842 30.2844 179.022 29.8244 177.362 28.9044C175.702 27.9644 174.382 26.6744 173.402 25.0344C172.442 23.3744 171.962 21.5044 171.962 19.4244C171.962 17.3444 172.442 15.4844 173.402 13.8444C174.382 12.1844 175.702 10.8944 177.362 9.97439C179.022 9.05439 180.842 8.59439 182.822 8.59439C184.822 8.59439 186.642 9.05439 188.282 9.97439C189.942 10.8944 191.252 12.1844 192.212 13.8444C193.172 15.4844 193.652 17.3444 193.652 19.4244C193.652 21.5044 193.172 23.3744 192.212 25.0344C191.252 26.6744 189.942 27.9644 188.282 28.9044C186.622 29.8244 184.802 30.2844 182.822 30.2844ZM182.822 24.8244C184.322 24.8244 185.502 24.3344 186.362 23.3544C187.242 22.3744 187.682 21.0644 187.682 19.4244C187.682 17.7444 187.242 16.4244 186.362 15.4644C185.502 14.4844 184.322 13.9944 182.822 13.9944C181.302 13.9944 180.112 14.4844 179.252 15.4644C178.392 16.4244 177.962 17.7444 177.962 19.4244C177.962 21.0844 178.392 22.4044 179.252 23.3844C180.112 24.3444 181.302 24.8244 182.822 24.8244ZM216.377 8.92439V13.6044H207.917V17.3244H214.157V21.7944H207.917V30.0744H202.037V8.92439H216.377ZM228.994 30.2844C227.014 30.2844 225.194 29.8244 223.534 28.9044C221.874 27.9644 220.554 26.6744 219.574 25.0344C218.614 23.3744 218.134 21.5044 218.134 19.4244C218.134 17.3444 218.614 15.4844 219.574 13.8444C220.554 12.1844 221.874 10.8944 223.534 9.97439C225.194 9.05439 227.014 8.59439 228.994 8.59439C230.994 8.59439 232.814 9.05439 234.454 9.97439C236.114 10.8944 237.424 12.1844 238.384 13.8444C239.344 15.4844 239.824 17.3444 239.824 19.4244C239.824 21.5044 239.344 23.3744 238.384 25.0344C237.424 26.6744 236.114 27.9644 234.454 28.9044C232.794 29.8244 230.974 30.2844 228.994 30.2844ZM228.994 24.8244C230.494 24.8244 231.674 24.3344 232.534 23.3544C233.414 22.3744 233.854 21.0644 233.854 19.4244C233.854 17.7444 233.414 16.4244 232.534 15.4644C231.674 14.4844 230.494 13.9944 228.994 13.9944C227.474 13.9944 226.284 14.4844 225.424 15.4644C224.564 16.4244 224.134 17.7444 224.134 19.4244C224.134 21.0844 224.564 22.4044 225.424 23.3844C226.284 24.3444 227.474 24.8244 228.994 24.8244ZM253.177 30.0744L248.977 22.2744H248.347V30.0744H242.467V8.92439H251.737C253.437 8.92439 254.877 9.22439 256.057 9.82439C257.237 10.4044 258.127 11.2144 258.727 12.2544C259.327 13.2744 259.627 14.4244 259.627 15.7044C259.627 17.1444 259.227 18.4144 258.427 19.5144C257.647 20.5944 256.497 21.3644 254.977 21.8244L259.747 30.0744H253.177ZM248.347 18.2544H251.257C252.057 18.2544 252.657 18.0644 253.057 17.6844C253.457 17.3044 253.657 16.7544 253.657 16.0344C253.657 15.3544 253.447 14.8244 253.027 14.4444C252.627 14.0444 252.037 13.8444 251.257 13.8444H248.347V18.2544ZM278.231 8.92439V13.6044H272.591V30.0744H266.711V13.6044H261.131V8.92439H278.231ZM286.287 13.6344V17.0844H293.037V21.5544H286.287V25.3644H293.937V30.0744H280.407V8.92439H293.937V13.6344H286.287Z" fill="white"/>
</svg>
