<svg width="95" height="95" viewBox="0 0 95 95" fill="none" xmlns="http://www.w3.org/2000/svg">
<path d="M25.9561 87.9863V88.3258C25.9561 89.1056 25.5737 89.4954 24.8085 89.4954H24.3398V90.9746C24.3398 91.7544 23.9556 92.1443 23.1876 92.1443C22.4197 92.1443 22.0401 91.7544 22.0401 90.9746V89.8696C22.0401 89.0926 22.4225 88.7041 23.1876 88.7041H23.54V87.5774C23.54 87.328 23.4241 87.2033 23.1918 87.2033H23.183C22.9535 87.2033 22.839 87.328 22.839 87.5774V87.8786H22.0396V87.5774C22.0396 86.8004 22.422 86.412 23.1872 86.412C23.9524 86.412 24.3393 86.8004 24.3393 87.5774V88.7041H24.8081C25.0404 88.7041 25.1563 88.578 25.1563 88.3258V87.5262C25.1563 86.345 24.5485 85.7546 23.3336 85.7546C22.1186 85.7546 21.5067 86.3639 21.5067 87.5821V91.0263C21.5067 92.2075 22.1158 92.7979 23.3336 92.7979C24.5513 92.7979 25.1563 92.19 25.1563 90.9746V90.7898H25.9602V90.9746C25.9602 92.7148 25.0847 93.5846 23.3336 93.5846C21.5825 93.5846 20.7028 92.7319 20.7028 91.0259V87.5816C20.7028 85.8387 21.5797 84.967 23.3336 84.967C25.0874 84.967 25.9602 85.8197 25.9602 87.5257V87.9858H25.9561V87.9863ZM23.1193 89.4913C22.887 89.4913 22.7711 89.6174 22.7711 89.8696V90.9746C22.7711 91.2268 22.887 91.3529 23.1193 91.3529C23.3516 91.3529 23.4716 91.2268 23.4716 90.9746V89.4954L23.1193 89.4913Z" fill="white"/>
<path d="M27.0999 86.1329H28.3163V93.5897H27.0999V86.1329Z" fill="white"/>
<path d="M29.4555 86.1329H32.6109V87.1908H30.6723V89.3282H32.3403V90.3949H30.6723V92.5277H32.6109V93.5897H29.4555V86.1329Z" fill="white"/>
<path d="M36.9222 92.3036C36.9222 93.2381 36.4779 93.7541 35.5895 93.8516C35.6038 94.0151 36.048 94.0983 36.9222 94.101V95C36.2027 95 35.7086 94.9381 35.4389 94.8152C35.0893 94.6577 34.9102 94.3408 34.9014 93.865C33.9182 93.8017 33.4269 93.2815 33.4269 92.3041V87.7414C33.4269 86.6979 34.0087 86.1763 35.172 86.1763C36.3352 86.1763 36.9217 86.6983 36.9217 87.7414V92.3041L36.9222 92.3036ZM35.7058 87.7409C35.7058 87.4083 35.5294 87.2407 35.1771 87.2379H35.1683C34.8187 87.2379 34.6437 87.4056 34.6437 87.7409V92.3036C34.6437 92.6417 34.8201 92.8108 35.1725 92.8108C35.5248 92.8108 35.7054 92.6417 35.7054 92.3036V87.7409H35.7058Z" fill="white"/>
<path d="M37.9538 86.1329H39.7248C40.8054 86.1329 41.3452 86.6563 41.3452 87.7026V88.8205C41.3452 89.4769 41.0256 89.9098 40.3865 90.1191L41.7534 93.5892H40.4207L39.3244 90.308L39.1697 90.3297V93.5892H37.9533V86.1324L37.9538 86.1329ZM39.1706 87.1908V89.3282H39.45C39.619 89.3282 39.7349 89.318 39.7982 89.2982C40.0189 89.221 40.1293 89.0617 40.1293 88.821V87.7031C40.1293 87.3621 39.9529 87.1912 39.6005 87.1912H39.1706V87.1908Z" fill="white"/>
<path d="M42.2097 86.1329H45.3651V87.1908H43.4265V89.3282H45.0945V90.3949H43.4265V92.5277H45.3651V93.5897H42.2097V86.1329Z" fill="white"/>
<path d="M49.6763 92.1572C49.6763 93.2007 49.0931 93.7237 47.9266 93.7269C46.7629 93.7269 46.1815 93.204 46.1815 92.1572V87.5946C46.1815 86.551 46.7634 86.0295 47.9266 86.0295C49.0899 86.0295 49.6763 86.551 49.6763 87.5946V88.5965H48.46V87.5946C48.46 87.2592 48.2836 87.0915 47.9312 87.0915H47.9225C47.5729 87.0915 47.3979 87.2592 47.3979 87.5946V92.1572C47.3979 92.4926 47.5743 92.6603 47.9266 92.6603C48.279 92.6603 48.4595 92.4926 48.4595 92.1572V90.4069H47.9308V89.3449H49.6759V92.1572H49.6763Z" fill="white"/>
<path d="M50.7297 86.1329H51.946V93.5897H50.7297V86.1329Z" fill="white"/>
<path d="M56.4771 90.9446L56.8724 93.5892H55.6431L55.4067 92.0066H54.1645L53.9239 93.5892H52.6987L53.094 90.9534L53.9539 86.1329H55.6219L56.4771 90.945V90.9446ZM55.2478 90.9446L54.7837 87.8398L54.3196 90.9446H55.2483H55.2478Z" fill="white"/>
<path d="M61.0123 92.1572C61.0123 93.2007 60.4291 93.7237 59.2626 93.7269C58.0989 93.7269 57.5175 93.204 57.5175 92.1572V87.5946C57.5175 86.551 58.0994 86.0295 59.2626 86.0295C60.4259 86.0295 61.0123 86.551 61.0123 87.5946V92.1572ZM59.7955 87.595C59.7955 87.2596 59.6191 87.092 59.2668 87.092H59.258C58.9084 87.092 58.7334 87.2596 58.7334 87.595V92.1577C58.7334 92.493 58.9098 92.6607 59.2621 92.6607C59.6145 92.6607 59.795 92.493 59.795 92.1577V87.595H59.7955Z" fill="white"/>
<path d="M64.3224 89.556C64.3224 89.258 64.2592 89.0816 64.1331 89.0271C64.0643 88.9956 63.9539 88.9799 63.802 88.9799C63.7646 88.9799 63.7263 88.9813 63.6861 88.9841C63.4395 88.9957 63.3019 89.1061 63.2732 89.3153L63.2603 89.6548H62.044L62.2245 85.1527H65.5388V86.3524H63.3938L63.3079 88.1669C63.5143 87.929 63.7951 87.8098 64.1506 87.8098C64.1991 87.8098 64.2495 87.8126 64.3012 87.8186C64.7251 87.856 65.0479 88.0265 65.2682 88.3304C65.4487 88.5771 65.5388 88.9855 65.5388 89.556V91.9512C65.5388 93.1324 64.9555 93.7228 63.7891 93.7228C62.6226 93.7228 62.044 93.1324 62.044 91.9512V90.9534H63.2603V91.9512C63.2603 92.3323 63.4349 92.5231 63.7849 92.5231H63.7937C64.146 92.5203 64.3224 92.3295 64.3224 91.9512V89.556Z" fill="white"/>
<path d="M69.0119 85.1522V92.3895H70.1511V93.5892H66.6563V92.3895H67.7955V86.3519H66.6563V85.1522H69.0119Z" fill="white"/>
<path d="M73.5471 86.7907C73.5471 86.4124 73.3707 86.2216 73.0184 86.2188H73.0096C72.66 86.2188 72.485 86.4096 72.485 86.7907V87.9216H71.2687V86.7907C71.2687 85.6095 71.8505 85.0192 73.0138 85.0192C74.177 85.0192 74.7635 85.61 74.7635 86.7907V88.257C74.7635 88.8104 74.5414 89.2016 74.0971 89.4308C74.5414 89.6603 74.7635 90.0516 74.7635 90.6046V91.9507C74.7635 93.1319 74.1802 93.7223 73.0138 93.7223C71.8473 93.7223 71.2687 93.1319 71.2687 91.9507V90.8198H72.485V91.9507C72.485 92.3318 72.6596 92.5226 73.0096 92.5226H73.0184C73.3707 92.5198 73.5471 92.329 73.5471 91.9507V90.6046C73.5471 90.2978 73.4825 90.1158 73.3536 90.0585C73.2848 90.0299 73.1786 90.0156 73.0355 90.0156H72.6355V88.8159H73.1301C73.2447 88.8159 73.3305 88.7988 73.3883 88.7642C73.494 88.7041 73.5471 88.5318 73.5471 88.2482V86.7903V86.7907Z" fill="white"/>
<path d="M3.87609 75.5225C3.87609 76.457 3.43184 76.973 2.54336 77.0705C2.55768 77.234 3.00192 77.3171 3.87609 77.3199V78.2189C3.15662 78.2189 2.6625 78.157 2.39282 78.0341C2.04324 77.8766 1.86407 77.5597 1.8553 77.0838C0.872152 77.0206 0.380812 76.5004 0.380812 75.5229V70.9603C0.380812 69.9167 0.962656 69.3952 2.1259 69.3952C3.28915 69.3952 3.87563 69.9172 3.87563 70.9603V75.5229L3.87609 75.5225ZM2.65927 70.9598C2.65927 70.6272 2.48287 70.4595 2.13053 70.4568H2.12175C1.77218 70.4568 1.59716 70.6244 1.59716 70.9598V75.5225C1.59716 75.8606 1.77356 76.0297 2.1259 76.0297C2.47825 76.0297 2.65881 75.8606 2.65881 75.5225V70.9598H2.65927Z" fill="white"/>
<path d="M8.35959 75.3765C8.35959 76.4201 7.77636 76.943 6.60988 76.9462C5.44617 76.9462 4.86478 76.4233 4.86478 75.3765V69.3647H6.08113V75.3765C6.08113 75.7119 6.25753 75.8796 6.60988 75.8796C6.96222 75.8796 7.14279 75.7119 7.14279 75.3765V69.3647H8.35913V75.3765H8.35959Z" fill="white"/>
<path d="M12.826 74.1639L13.2213 76.8085H11.992L11.7556 75.2259H10.5134L10.2728 76.8085H9.04766L9.44296 74.1727L10.3028 69.3522H11.9708L12.826 74.1643V74.1639ZM11.5963 74.1639L11.1322 71.0591L10.6681 74.1639H11.5967H11.5963Z" fill="white"/>
<path d="M13.9523 69.3518H15.8267C16.9073 69.3518 17.4471 69.8752 17.4471 70.9215V75.243C17.4471 76.2838 16.881 76.8053 15.7491 76.8081H13.9523V69.3513V69.3518ZM15.1687 70.4096V75.746H15.7016C16.0539 75.746 16.2303 75.5784 16.2303 75.243V70.9215C16.2303 70.5806 16.0539 70.4096 15.7016 70.4096H15.1687Z" fill="white"/>
<path d="M18.4788 69.3518H20.2497C21.3303 69.3518 21.8702 69.8752 21.8702 70.9215V72.0394C21.8702 72.6958 21.5506 73.1287 20.9115 73.3379L22.2784 76.8081H20.9457L19.8494 73.5269L19.6947 73.5486V76.8081H18.4783V69.3513L18.4788 69.3518ZM19.6951 70.4096V72.5471H19.9745C20.1435 72.5471 20.2594 72.5369 20.3227 72.517C20.5434 72.4399 20.6538 72.2805 20.6538 72.0398V70.9219C20.6538 70.581 20.4774 70.4101 20.1251 70.4101H19.6951V70.4096Z" fill="white"/>
<path d="M26.3583 74.1639L26.7536 76.8085H25.5243L25.2879 75.2259H24.0457L23.8051 76.8085H22.5799L22.9752 74.1727L23.8351 69.3522H25.503L26.3583 74.1643V74.1639ZM25.1285 74.1639L24.6644 71.0591L24.2003 74.1639H25.129H25.1285Z" fill="white"/>
<path d="M27.4846 69.3518H28.7009L29.8531 73.6779V69.3518H30.9794V76.8086H29.7631L28.6538 72.6201V76.8086H27.4846V69.3518Z" fill="white"/>
<path d="M35.5059 75.3765C35.5059 76.42 34.9226 76.943 33.7562 76.9462C32.5924 76.9462 32.0111 76.4233 32.0111 75.3765V70.8139C32.0111 69.7703 32.5929 69.2488 33.7562 69.2488C34.9194 69.2488 35.5059 69.7703 35.5059 70.8139V71.8158H34.2895V70.8139C34.2895 70.4785 34.1131 70.3108 33.7608 70.3108H33.752C33.4024 70.3108 33.2274 70.4785 33.2274 70.8139V75.3765C33.2274 75.7119 33.4038 75.8796 33.7562 75.8796C34.1085 75.8796 34.289 75.7119 34.289 75.3765V73.6262H33.7603V72.5642H35.5054V75.3765H35.5059Z" fill="white"/>
<path d="M39.9894 75.3765C39.9894 76.4201 39.4061 76.943 38.2397 76.9462C37.0759 76.9462 36.4946 76.4233 36.4946 75.3765V69.3647H37.7109V75.3765C37.7109 75.7119 37.8873 75.8796 38.2397 75.8796C38.592 75.8796 38.7726 75.7119 38.7726 75.3765V69.3647H39.9889V75.3765H39.9894Z" fill="white"/>
<path d="M41.064 76.8081V69.3513H42.2803V75.7456H44.2189V76.8076H41.0635L41.064 76.8081Z" fill="white"/>
<path d="M48.3418 74.1639L48.737 76.8085H47.5078L47.2713 75.2259H46.0291L45.7885 76.8085H44.5634L44.9587 74.1727L45.8185 69.3522H47.4865L48.3418 74.1643V74.1639ZM47.1125 74.1639L46.6484 71.0591L46.1843 74.1639H47.1129H47.1125Z" fill="white"/>
<path d="M49.4681 69.3518H51.239C52.3196 69.3518 52.8594 69.8752 52.8594 70.9215V72.0394C52.8594 72.6958 52.5399 73.1287 51.9008 73.3379L53.2677 76.8081H51.9349L50.8386 73.5269L50.6839 73.5486V76.8081H49.4676V69.3513L49.4681 69.3518ZM50.6844 70.4096V72.5471H50.9638C51.1328 72.5471 51.2487 72.5369 51.312 72.517C51.5327 72.4399 51.6431 72.2805 51.6431 72.0398V70.9219C51.6431 70.581 51.4667 70.4101 51.1143 70.4101H50.6844V70.4096Z" fill="white"/>
<path d="M56.0065 69.3518H57.7775C58.8581 69.3518 59.3979 69.8752 59.3979 70.9215V72.0394C59.3979 72.6958 59.0784 73.1287 58.4392 73.3379L59.8061 76.8081H58.4734L57.3771 73.5269L57.2224 73.5486V76.8081H56.0061V69.3513L56.0065 69.3518ZM57.2229 70.4096V72.5471H57.5023C57.6713 72.5471 57.7872 72.5369 57.8505 72.517C58.0712 72.4399 58.1816 72.2805 58.1816 72.0398V70.9219C58.1816 70.581 58.0052 70.4101 57.6528 70.4101H57.2229V70.4096Z" fill="white"/>
<path d="M60.2619 69.3518H63.4173V70.4097H61.4787V72.5471H63.1467V73.6137H61.4787V75.7465H63.4173V76.8086H60.2619V69.3518Z" fill="white"/>
<path d="M67.729 75.3765C67.729 76.42 67.1458 76.943 65.9793 76.9462C64.8156 76.9462 64.2342 76.4233 64.2342 75.3765V70.8139C64.2342 69.7703 64.8161 69.2488 65.9793 69.2488C67.1426 69.2488 67.729 69.7703 67.729 70.8139V71.8158H66.5127V70.8139C66.5127 70.4785 66.3363 70.3108 65.9839 70.3108H65.9752C65.6256 70.3108 65.4506 70.4785 65.4506 70.8139V75.3765C65.4506 75.7119 65.627 75.8796 65.9793 75.8796C66.3317 75.8796 66.5122 75.7119 66.5122 75.3765V73.6262H65.9835V72.5642H67.7286V75.3765H67.729Z" fill="white"/>
<path d="M68.7819 69.3518H69.9983V76.8086H68.7819V69.3518Z" fill="white"/>
<path d="M74.6152 74.1639L75.0105 76.8085H73.7812L73.5448 75.2259H72.3026L72.062 76.8085H70.8369L71.2322 74.1727L72.092 69.3522H73.76L74.6152 74.1644V74.1639ZM72.0361 69.1841L71.4474 68.87L71.5979 68.5646C71.79 68.1775 72.0394 67.9756 72.346 67.9586H72.376C72.5681 67.9586 72.8161 68.0533 73.1195 68.2422C73.2659 68.3341 73.386 68.3799 73.4806 68.3799C73.561 68.3799 73.6224 68.3471 73.6653 68.281L73.8417 67.9927L74.4005 68.3628L74.2241 68.6552C74.0408 68.9476 73.8141 69.1009 73.5448 69.1153H73.5148C73.3227 69.1153 73.0779 69.0206 72.7796 68.8316C72.5903 68.7143 72.4772 68.6524 72.4402 68.6469H72.4231C72.3428 68.6469 72.2643 68.7245 72.1867 68.8792L72.0361 69.1846V69.1841ZM73.386 74.1639L72.9219 71.0591L72.4578 74.1639H73.3864H73.386Z" fill="white"/>
<path d="M79.0646 75.3765C79.0646 76.42 78.4813 76.943 77.3149 76.9462C76.1511 76.9462 75.5698 76.4233 75.5698 75.3765V70.8139C75.5698 69.7703 76.1516 69.2488 77.3149 69.2488C78.4781 69.2488 79.0646 69.7703 79.0646 70.8139V75.3765ZM77.8482 70.8139C77.8482 70.4785 77.6718 70.3108 77.3195 70.3108H77.3107C76.9611 70.3108 76.7861 70.4785 76.7861 70.8139V75.3765C76.7861 75.7119 76.9625 75.8796 77.3149 75.8796C77.6672 75.8796 77.8478 75.7119 77.8478 75.3765V70.8139H77.8482Z" fill="white"/>
<path d="M84.5585 72.7748C84.5585 72.4768 84.4952 72.3004 84.3692 72.2459C84.3004 72.2145 84.19 72.1988 84.0381 72.1988C84.0007 72.1988 83.9619 72.2001 83.9221 72.2029C83.6755 72.2145 83.5379 72.3249 83.5093 72.5341L83.4964 72.8737H82.28L82.4606 68.3715H85.7748V69.5712H83.6298L83.5439 71.3857C83.7504 71.1478 84.0311 71.0286 84.3867 71.0286C84.4352 71.0286 84.4855 71.0314 84.5372 71.0374C84.9612 71.0748 85.284 71.2453 85.5042 71.5493C85.6848 71.7959 85.7748 72.2043 85.7748 72.7748V75.17C85.7748 76.3512 85.1916 76.9416 84.0251 76.9416C82.8586 76.9416 82.28 76.3512 82.28 75.17V74.1722H83.4964V75.17C83.4964 75.5511 83.6709 75.7419 84.021 75.7419H84.0297C84.3821 75.7391 84.5585 75.5483 84.5585 75.17V72.7748Z" fill="white"/>
<path d="M89.2484 68.3715V75.6088H90.3877V76.8085H86.8928V75.6088H88.0321V69.5712H86.8928V68.3715H89.2484Z" fill="white"/>
<path d="M93.7832 70.0096C93.7832 69.6313 93.6068 69.4405 93.2544 69.4377H93.2457C92.8961 69.4377 92.7211 69.6285 92.7211 70.0096V71.1405H91.5047V70.0096C91.5047 68.8284 92.0866 68.238 93.2498 68.238C94.4131 68.238 94.9995 68.8289 94.9995 70.0096V71.4758C94.9995 72.0292 94.7774 72.4205 94.3332 72.6496C94.7774 72.8792 94.9995 73.2705 94.9995 73.8234V75.1696C94.9995 76.3508 94.4163 76.9411 93.2498 76.9411C92.0833 76.9411 91.5047 76.3508 91.5047 75.1696V74.0387H92.7211V75.1696C92.7211 75.5507 92.8956 75.7414 93.2457 75.7414H93.2544C93.6068 75.7387 93.7832 75.5479 93.7832 75.1696V73.8234C93.7832 73.5167 93.7185 73.3347 93.5897 73.2774C93.5209 73.2488 93.4147 73.2345 93.2715 73.2345H92.8716V72.0348H93.3662C93.4807 72.0348 93.5666 72.0177 93.6239 71.983C93.7301 71.923 93.7827 71.7507 93.7827 71.467V70.0091L93.7832 70.0096Z" fill="white"/>
<path d="M56.0924 22.3038C55.8384 22.1514 55.5988 22.0179 55.3693 21.8687C54.1524 21.0783 53.203 20.0597 52.6562 18.6932C52.3404 17.9033 52.1441 17.0843 52.0384 16.2445C51.9202 15.3081 51.9303 14.3648 51.9927 13.4261C52.0712 12.2477 52.2942 11.0914 52.6179 9.9555C52.6359 9.89314 52.6572 9.8317 52.6752 9.76934C52.7218 9.60673 52.7241 9.60858 52.8553 9.72684C53.2303 10.0636 53.3956 10.5232 53.5932 10.9658C54.1007 12.0999 54.8045 13.0713 55.9031 13.7065C56.5427 14.0761 57.24 14.2659 57.9664 14.387C58.9578 14.5523 59.9391 14.7685 60.8216 15.2878C61.0248 15.4074 61.2086 15.5529 61.3984 15.7571C61.3984 15.631 61.4011 15.5395 61.3979 15.4485C61.3744 14.8032 61.5166 14.2003 61.9156 13.6857C62.4088 13.0496 63.0677 12.735 63.8782 12.687C65.0867 12.6149 66.0532 13.0954 66.8895 13.9167C67.4141 14.4322 68.0107 14.8323 68.7187 15.0549C68.7639 15.0693 68.841 15.0559 68.8443 15.1362C68.847 15.2055 68.781 15.2203 68.738 15.2499C68.0698 15.7058 67.5651 16.2874 67.324 17.0746C67.1823 17.5374 67.1938 18.0119 67.2058 18.4872C67.2211 19.0836 67.3541 19.6642 67.4312 20.2523C67.5831 21.4183 67.3337 22.4826 66.6697 23.4582C65.9004 24.5881 64.8526 25.3 63.5245 25.5943C62.8719 25.7389 62.2093 25.7869 61.5434 25.6825C61.4607 25.6696 61.415 25.6936 61.3739 25.7638C60.9103 26.5523 60.4429 27.3395 59.9788 28.128C59.8689 28.3147 59.8726 28.3174 59.6824 28.2278C58.5441 27.692 57.4062 27.1552 56.2674 26.6198C55.3277 26.1782 54.387 25.7384 53.4464 25.2982C53.1795 25.1734 52.9121 25.0501 52.6461 24.924C52.4868 24.8482 52.484 24.8076 52.6322 24.7046C53.5618 24.0606 54.4923 23.4176 55.4219 22.7741C55.6431 22.6207 55.8625 22.465 56.0929 22.3033L56.0924 22.3038ZM53.5013 14.004C53.4861 14.1315 53.4667 14.2281 53.4639 14.3251C53.4445 14.9681 53.529 15.601 53.6685 16.226C53.8287 16.9457 54.0883 17.6289 54.4328 18.283C54.9366 19.2397 55.6477 19.9899 56.5898 20.5184C57.3231 20.93 58.1072 21.2011 58.9334 21.3554C59.2372 21.4123 59.5388 21.4811 59.8505 21.4755C59.8796 21.4751 59.9174 21.4728 59.9285 21.5056C59.9401 21.5393 59.9082 21.5596 59.8842 21.5767C59.8269 21.6174 59.7673 21.6539 59.7101 21.6945C58.8936 22.2729 58.0772 22.8503 57.2612 23.43C56.7759 23.7746 56.2914 24.1207 55.8089 24.469C55.6403 24.5909 55.6408 24.6002 55.8334 24.6985C56.0601 24.8145 56.2919 24.9194 56.521 25.0307C57.3379 25.4284 58.1562 25.8238 58.9698 26.2281C59.0844 26.2849 59.143 26.265 59.1961 26.1629C59.2123 26.132 59.234 26.1042 59.2534 26.0747C59.693 25.4002 60.134 24.7267 60.5713 24.0504C60.635 23.952 60.7117 23.91 60.8225 23.9442C61.2017 24.062 61.5891 24.122 61.9862 24.1322C62.5113 24.1456 63.0229 24.0902 63.5101 23.8804C64.6207 23.4019 65.2109 22.4909 65.5374 21.3841C65.7323 20.7226 65.6602 20.043 65.5198 19.3783C65.3518 18.5828 65.2797 17.7841 65.4307 16.9826C65.542 16.3909 65.7535 15.8356 66.2462 15.4388C66.3127 15.3852 66.3146 15.3501 66.2407 15.3081C65.9405 15.139 65.6953 14.9034 65.4552 14.6614C65.1366 14.3398 64.7574 14.1615 64.2989 14.1943C63.7138 14.2364 63.2843 14.5186 63.0169 15.0466C62.7713 15.5317 62.8198 16.0527 62.8475 16.5632C62.871 16.9933 62.9066 17.4224 62.8872 17.8525C62.8636 18.3856 62.6909 18.8605 62.285 19.2305C62.1636 19.3413 62.1451 19.339 62.0901 19.1783C61.771 18.241 61.1402 17.5712 60.2942 17.0875C59.6302 16.7082 58.9075 16.4976 58.1571 16.3872C57.4986 16.2902 56.8479 16.1682 56.2148 15.9599C55.5798 15.7511 54.9795 15.4748 54.4401 15.0743C54.0587 14.7912 53.7479 14.4452 53.5013 14.0045V14.004Z" fill="white"/>
<path d="M34.6899 36.1424C37.3082 36.1424 39.927 36.1424 42.5454 36.1424C42.804 36.1424 42.8308 36.1673 42.7961 36.4163C42.7199 36.9651 42.7015 37.5199 42.5902 38.0655C42.4198 38.9002 42.1275 39.6855 41.7021 40.4233C41.1739 41.3402 40.4558 42.0969 39.7017 42.8263C39.2085 43.3035 38.6696 43.7285 38.1782 44.208C37.6749 44.699 37.395 45.3033 37.2408 45.9694C37.0275 46.8877 37.2205 47.7521 37.6495 48.5739C37.9386 49.1282 38.2651 49.658 38.6368 50.163C38.9208 50.5482 39.1558 50.97 39.4094 51.3774C39.4833 51.4961 39.4694 51.516 39.3272 51.516C36.2129 51.516 33.0986 51.516 29.9847 51.516C29.9418 51.516 29.89 51.5345 29.8596 51.4887C29.8212 51.4315 29.878 51.3964 29.9016 51.3571C30.3846 50.5501 30.936 49.7865 31.4033 48.9702C31.6592 48.524 31.8868 48.0662 32.0263 47.5645C32.253 46.7492 32.1233 45.9796 31.8092 45.2137C31.5751 44.6431 31.1558 44.2329 30.7033 43.8551C29.987 43.2573 29.3054 42.6244 28.6802 41.9334C27.9833 41.1628 27.4352 40.2985 27.0657 39.3215C26.8561 38.7667 26.7148 38.1967 26.6257 37.6137C26.5675 37.234 26.5393 36.8496 26.5014 36.4671C26.477 36.2177 26.5495 36.1424 26.8053 36.1424C29.4338 36.1424 32.0623 36.1424 34.6908 36.1424H34.6899ZM34.6594 37.9939C32.8173 37.9939 30.9753 37.9939 29.1336 37.9939C28.9124 37.9939 28.9009 38.0064 28.9679 38.2258C29.1849 38.9413 29.5289 39.5899 29.9916 40.1766C30.5333 40.8635 31.1821 41.4474 31.8143 42.0452C32.6197 42.8064 33.299 43.6403 33.6744 44.7074C34.0628 45.8119 34.1122 46.9141 33.7848 48.0329C33.6342 48.5475 33.4112 49.0326 33.1327 49.4922C33.0344 49.6548 33.0441 49.6659 33.2353 49.6659C34.1514 49.6659 35.0672 49.6659 35.9834 49.6659C36.1662 49.6659 36.2113 49.5844 36.1187 49.4215C35.5082 48.3558 35.1568 47.2347 35.3216 45.9851C35.4144 45.2816 35.6398 44.6256 35.9556 43.9992C36.3329 43.2504 36.8617 42.6124 37.4565 42.0262C37.9483 41.5412 38.4488 41.0649 38.9282 40.5674C39.5858 39.8846 40.0743 39.0965 40.3376 38.1777C40.3893 37.998 40.3884 37.9943 40.2004 37.9943C38.3532 37.9943 36.5066 37.9943 34.6594 37.9943V37.9939Z" fill="white"/>
<path d="M60.5404 48.0269C58.6526 48.0269 56.7648 48.0251 54.8775 48.0306C54.7348 48.0306 54.6909 47.9909 54.6549 47.8518C54.4572 47.0882 54.242 46.3293 54.0352 45.568C53.741 44.4842 53.4501 43.3996 53.1564 42.3159C52.847 41.1744 52.5357 40.0334 52.2245 38.8924C52.1026 38.4443 51.9788 37.9971 51.8574 37.549C51.8458 37.5065 51.8287 37.4576 51.8694 37.4224C51.9119 37.3864 51.9553 37.4169 51.995 37.4363C52.889 37.8784 53.8398 38.2064 54.6766 38.7644C55.2141 39.1229 55.7239 39.5178 56.2139 39.9396C56.4494 40.1424 56.6807 40.3484 56.9052 40.5628C57.0368 40.688 57.0576 40.6819 57.1241 40.5115C57.4538 39.6643 57.8167 38.8318 58.2291 38.0211C58.617 37.258 59.0483 36.5212 59.5646 35.8361C59.8421 35.4679 60.1506 35.1261 60.4489 34.775C60.5339 34.6748 60.6078 34.7011 60.6854 34.7866C61.2658 35.4245 61.7997 36.0985 62.2453 36.839C62.9666 38.0368 63.5295 39.31 64.0269 40.6136C64.0735 40.7351 64.1109 40.7263 64.1862 40.6552C64.5039 40.3572 64.8332 40.0726 65.1666 39.7922C65.9742 39.1123 66.847 38.5385 67.8103 38.1015C68.2693 37.8932 68.7154 37.6567 69.168 37.4335C69.2068 37.4146 69.2492 37.3702 69.2913 37.4035C69.3361 37.4386 69.2931 37.4885 69.2825 37.5273C69.0077 38.5385 68.7293 39.5488 68.4545 40.5605C68.2061 41.4756 67.9627 42.3921 67.7157 43.3072C67.397 44.487 67.0761 45.6664 66.7561 46.8462C66.6688 47.1686 66.5783 47.4906 66.4974 47.8149C66.4591 47.9678 66.3912 48.0315 66.2185 48.0311C64.3257 48.0241 62.4333 48.0264 60.5404 48.0264V48.0269ZM54.2157 40.5836C54.2106 40.5766 54.2051 40.5697 54.2 40.5632C54.1986 40.5678 54.1954 40.5729 54.1963 40.5771C54.2005 40.5905 54.2083 40.5914 54.218 40.5808C54.2425 40.8478 54.3616 41.0857 54.4489 41.3333C54.9966 42.8924 55.5471 44.4505 56.0901 46.0114C56.1284 46.1214 56.1788 46.1426 56.2813 46.1426C59.1347 46.1403 61.9885 46.1399 64.8419 46.144C64.9634 46.144 65.0188 46.1075 65.0576 45.9957C65.3157 45.2506 65.5794 44.5069 65.8417 43.7631C66.1922 42.7699 66.5436 41.7768 66.8927 40.7831C66.9117 40.7291 66.9454 40.6727 66.9168 40.608C66.8701 40.6127 66.8323 40.6353 66.7972 40.6639C66.1377 41.197 65.536 41.7911 64.9606 42.4115C64.4402 42.9727 63.9304 43.5442 63.4141 44.1096C63.2968 44.238 63.2446 44.2242 63.1929 44.0579C63.0908 43.729 62.9865 43.401 62.889 43.0707C62.6318 42.1994 62.3603 41.3324 62.031 40.4852C61.6671 39.5493 61.2806 38.624 60.7736 37.7546C60.7126 37.6497 60.6623 37.5365 60.5672 37.4552C60.4914 37.5116 60.4586 37.5864 60.4185 37.6548C59.9719 38.4193 59.6011 39.2203 59.2741 40.0426C58.9865 40.766 58.7149 41.4954 58.4923 42.2424C58.3104 42.8549 58.1188 43.4647 57.9313 44.0754C57.8869 44.2191 57.8671 44.2237 57.7595 44.1151C57.6399 43.9936 57.5203 43.8726 57.4048 43.7479C56.5616 42.8369 55.7341 41.9107 54.8253 41.0635C54.6364 40.8875 54.4517 40.7023 54.2148 40.5854L54.2157 40.5836Z" fill="white"/>
<path d="M36.2166 23.4328C36.2166 25.0806 36.2147 26.7279 36.2198 28.3757C36.2198 28.5147 36.1948 28.5628 36.0434 28.5609C35.2676 28.5526 34.4913 28.5572 33.7155 28.5568C33.5887 28.5568 33.5253 28.4905 33.5253 28.3581C33.5253 25.063 33.5253 21.7675 33.5253 18.4724C33.5253 18.3437 33.4607 18.2794 33.3318 18.2794C31.1138 18.2794 28.8963 18.278 26.6783 18.2826C26.5365 18.2826 26.4931 18.2526 26.4945 18.1038C26.5028 17.3679 26.4977 16.6316 26.4982 15.8952C26.4982 15.6342 26.5435 15.589 26.8044 15.589C28.9822 15.589 31.16 15.5871 33.3378 15.5922C33.4855 15.5922 33.5299 15.5617 33.5294 15.4051C33.5239 13.0963 33.5266 10.788 33.5225 8.47914C33.5225 8.34472 33.552 8.30176 33.6938 8.30314C34.4747 8.31053 35.2556 8.31053 36.0365 8.30314C36.1787 8.30176 36.2202 8.33502 36.2198 8.48238C36.2147 10.7912 36.2179 13.0995 36.2133 15.4084C36.2133 15.5502 36.2443 15.5927 36.3925 15.5922C38.6202 15.5871 40.8483 15.5899 43.076 15.5857C43.2127 15.5857 43.251 15.6195 43.2496 15.7585C43.2427 16.5447 43.2427 17.331 43.2496 18.1172C43.2505 18.2507 43.2159 18.2826 43.0838 18.2826C40.8862 18.2784 38.6885 18.2784 36.4904 18.2807C36.1685 18.2807 36.2189 18.2438 36.2179 18.5496C36.2147 20.177 36.2166 21.8049 36.2166 23.4324V23.4328Z" fill="white"/>
<path d="M60.5644 49.6622C62.3861 49.6622 64.2079 49.6636 66.0292 49.6594C66.1631 49.6594 66.2079 49.6885 66.2051 49.8308C66.1959 50.3463 66.1987 50.8619 66.2038 51.3779C66.2047 51.4878 66.1774 51.5234 66.0624 51.5234C62.3889 51.5206 58.7158 51.5201 55.0423 51.5234C54.9218 51.5234 54.9038 51.4786 54.9047 51.3737C54.9093 50.8582 54.9112 50.3422 54.9033 49.8267C54.9015 49.6955 54.9347 49.659 55.0691 49.6594C56.9005 49.664 58.7325 49.6627 60.5639 49.6627L60.5644 49.6622Z" fill="white"/>
<path d="M54.2185 40.5807C54.2086 40.5915 54.2006 40.5906 54.1963 40.5769C54.1949 40.5731 54.1987 40.5675 54.2001 40.5627C54.2053 40.5698 54.211 40.5769 54.2162 40.5835L54.2185 40.5802V40.5807Z" fill="white"/>
<path d="M48.4355 6.18835H47.293V55.3788H48.4355V6.18835Z" fill="white"/>
<path d="M72.3202 30.4673H23.147V31.6102H72.3202V30.4673Z" fill="white"/>
<path d="M77.4908 60.2741H17.9763V0.73877H77.4908V60.2741ZM19.6813 58.5681H75.7859V2.44428H19.6813V58.5681Z" fill="white"/>
</svg>
